# Tiled2Unity generated file. Do not modify by hand.
# Wavefront file for 'firstLevel_mesh_0005.obj'

# Vertices (Count = 88)
v -46 -17 0
v -46.5 -17 0
v -46.5 -16.5 0
v -46 -16.5 0
v -45.5 -17 0
v -46 -17 0
v -46 -16.5 0
v -45.5 -16.5 0
v -45 -17 0
v -45.5 -17 0
v -45.5 -16.5 0
v -45 -16.5 0
v -44.5 -17 0
v -45 -17 0
v -45 -16.5 0
v -44.5 -16.5 0
v -44 -17 0
v -44.5 -17 0
v -44.5 -16.5 0
v -44 -16.5 0
v -43.5 -17 0
v -44 -17 0
v -44 -16.5 0
v -43.5 -16.5 0
v -45.5 -18.5 0
v -46 -18.5 0
v -46 -18 0
v -45.5 -18 0
v -45 -18.5 0
v -45.5 -18.5 0
v -45.5 -18 0
v -45 -18 0
v -44.5 -18.5 0
v -45 -18.5 0
v -45 -18 0
v -44.5 -18 0
v -44 -18.5 0
v -44.5 -18.5 0
v -44.5 -18 0
v -44 -18 0
v -45.5 -19 0
v -46 -19 0
v -46 -18.5 0
v -45.5 -18.5 0
v -45 -19 0
v -45.5 -19 0
v -45.5 -18.5 0
v -45 -18.5 0
v -44.5 -19 0
v -45 -19 0
v -45 -18.5 0
v -44.5 -18.5 0
v -44 -19 0
v -44.5 -19 0
v -44.5 -18.5 0
v -44 -18.5 0
v -45.5 -19.5 0
v -46 -19.5 0
v -46 -19 0
v -45.5 -19 0
v -45 -19.5 0
v -45.5 -19.5 0
v -45.5 -19 0
v -45 -19 0
v -44.5 -19.5 0
v -45 -19.5 0
v -45 -19 0
v -44.5 -19 0
v -44 -19.5 0
v -44.5 -19.5 0
v -44.5 -19 0
v -44 -19 0
v -45.5 -20 0
v -46 -20 0
v -46 -19.5 0
v -45.5 -19.5 0
v -45 -20 0
v -45.5 -20 0
v -45.5 -19.5 0
v -45 -19.5 0
v -44.5 -20 0
v -45 -20 0
v -45 -19.5 0
v -44.5 -19.5 0
v -44 -20 0
v -44.5 -20 0
v -44.5 -19.5 0
v -44 -19.5 0

# Texture cooridinates (Count = 40)
vt 0.5 0.5714285
vt 0.5555556 0.5714285
vt 0.5555556 0.6428571
vt 0.5 0.6428571
vt 0.4444444 0.5714285
vt 0.4444444 0.6428571
vt 0.9444444 0.5714285
vt 1 0.5714285
vt 1 0.6428571
vt 0.9444444 0.6428571
vt 0.8888889 0.5714285
vt 0.8888889 0.6428571
vt 0.8333333 0.5714285
vt 0.8333333 0.6428571
vt 0.7777778 0.5714285
vt 0.7777778 0.6428571
vt 0.9444444 0.5
vt 1 0.5
vt 0.6111111 0.9285714
vt 0.6666667 0.9285714
vt 0.6666667 1
vt 0.6111111 1
vt 0.5555556 0.9285714
vt 0.5555556 1
vt 0.7777778 0.5
vt 0.8333333 0.5
vt 0.9444444 0.4285714
vt 1 0.4285714
vt 0.6111111 0.8571429
vt 0.6666667 0.8571429
vt 0.5555556 0.8571429
vt 0.7777778 0.4285714
vt 0.8333333 0.4285714
vt 0.9444444 0.3571429
vt 1 0.3571429
vt 0.6111111 0.7857143
vt 0.6666667 0.7857143
vt 0.5555556 0.7857143
vt 0.7777778 0.3571429
vt 0.8333333 0.3571429

# Normal
vn 0 0 -1

# Mesh description
g firstLevel_mesh_0005

# Faces
f 1/1/1 2/2/1 3/3/1 4/4/1
f 5/5/1 6/1/1 7/4/1 8/6/1
f 9/1/1 10/2/1 11/3/1 12/4/1
f 13/5/1 14/1/1 15/4/1 16/6/1
f 17/1/1 18/2/1 19/3/1 20/4/1
f 21/5/1 22/1/1 23/4/1 24/6/1
f 25/7/1 26/8/1 27/9/1 28/10/1
f 29/11/1 30/7/1 31/10/1 32/12/1
f 33/13/1 34/11/1 35/12/1 36/14/1
f 37/15/1 38/13/1 39/14/1 40/16/1
f 41/17/1 42/18/1 43/8/1 44/7/1
f 45/19/1 46/20/1 47/21/1 48/22/1
f 49/23/1 50/19/1 51/22/1 52/24/1
f 53/25/1 54/26/1 55/13/1 56/15/1
f 57/27/1 58/28/1 59/18/1 60/17/1
f 61/29/1 62/30/1 63/20/1 64/19/1
f 65/31/1 66/29/1 67/19/1 68/23/1
f 69/32/1 70/33/1 71/26/1 72/25/1
f 73/34/1 74/35/1 75/28/1 76/27/1
f 77/36/1 78/37/1 79/30/1 80/29/1
f 81/38/1 82/36/1 83/29/1 84/31/1
f 85/39/1 86/40/1 87/33/1 88/32/1

