# Tiled2Unity generated file. Do not modify by hand.
# Wavefront file for 'firstLevel_mesh_0006.obj'

# Vertices (Count = 720)
v -32 -11 0
v -32.5 -11 0
v -32.5 -10.5 0
v -32 -10.5 0
v -31.5 -11 0
v -32 -11 0
v -32 -10.5 0
v -31.5 -10.5 0
v -31 -11 0
v -31.5 -11 0
v -31.5 -10.5 0
v -31 -10.5 0
v -30.5 -11 0
v -31 -11 0
v -31 -10.5 0
v -30.5 -10.5 0
v -32 -11.5 0
v -32.5 -11.5 0
v -32.5 -11 0
v -32 -11 0
v -31.5 -11.5 0
v -32 -11.5 0
v -32 -11 0
v -31.5 -11 0
v -31 -11.5 0
v -31.5 -11.5 0
v -31.5 -11 0
v -31 -11 0
v -30.5 -11.5 0
v -31 -11.5 0
v -31 -11 0
v -30.5 -11 0
v -32 -12 0
v -32.5 -12 0
v -32.5 -11.5 0
v -32 -11.5 0
v -31.5 -12 0
v -32 -12 0
v -32 -11.5 0
v -31.5 -11.5 0
v -31 -12 0
v -31.5 -12 0
v -31.5 -11.5 0
v -31 -11.5 0
v -30.5 -12 0
v -31 -12 0
v -31 -11.5 0
v -30.5 -11.5 0
v -32 -12.5 0
v -32.5 -12.5 0
v -32.5 -12 0
v -32 -12 0
v -31.5 -12.5 0
v -32 -12.5 0
v -32 -12 0
v -31.5 -12 0
v -31 -12.5 0
v -31.5 -12.5 0
v -31.5 -12 0
v -31 -12 0
v -30.5 -12.5 0
v -31 -12.5 0
v -31 -12 0
v -30.5 -12 0
v -43.5 -13 0
v -44 -13 0
v -44 -12.5 0
v -43.5 -12.5 0
v -43 -13 0
v -43.5 -13 0
v -43.5 -12.5 0
v -43 -12.5 0
v -42.5 -13 0
v -43 -13 0
v -43 -12.5 0
v -42.5 -12.5 0
v -42 -13 0
v -42.5 -13 0
v -42.5 -12.5 0
v -42 -12.5 0
v -32 -13 0
v -32.5 -13 0
v -32.5 -12.5 0
v -32 -12.5 0
v -31.5 -13 0
v -32 -13 0
v -32 -12.5 0
v -31.5 -12.5 0
v -31 -13 0
v -31.5 -13 0
v -31.5 -12.5 0
v -31 -12.5 0
v -30.5 -13 0
v -31 -13 0
v -31 -12.5 0
v -30.5 -12.5 0
v -43.5 -13.5 0
v -44 -13.5 0
v -44 -13 0
v -43.5 -13 0
v -43 -13.5 0
v -43.5 -13.5 0
v -43.5 -13 0
v -43 -13 0
v -42.5 -13.5 0
v -43 -13.5 0
v -43 -13 0
v -42.5 -13 0
v -42 -13.5 0
v -42.5 -13.5 0
v -42.5 -13 0
v -42 -13 0
v -58 -14 0
v -58.5 -14 0
v -58.5 -13.5 0
v -58 -13.5 0
v -57.5 -14 0
v -58 -14 0
v -58 -13.5 0
v -57.5 -13.5 0
v -57 -14 0
v -57.5 -14 0
v -57.5 -13.5 0
v -57 -13.5 0
v -56.5 -14 0
v -57 -14 0
v -57 -13.5 0
v -56.5 -13.5 0
v -43.5 -14 0
v -44 -14 0
v -44 -13.5 0
v -43.5 -13.5 0
v -43 -14 0
v -43.5 -14 0
v -43.5 -13.5 0
v -43 -13.5 0
v -42.5 -14 0
v -43 -14 0
v -43 -13.5 0
v -42.5 -13.5 0
v -42 -14 0
v -42.5 -14 0
v -42.5 -13.5 0
v -42 -13.5 0
v -58 -14.5 0
v -58.5 -14.5 0
v -58.5 -14 0
v -58 -14 0
v -57.5 -14.5 0
v -58 -14.5 0
v -58 -14 0
v -57.5 -14 0
v -57 -14.5 0
v -57.5 -14.5 0
v -57.5 -14 0
v -57 -14 0
v -56.5 -14.5 0
v -57 -14.5 0
v -57 -14 0
v -56.5 -14 0
v -43.5 -14.5 0
v -44 -14.5 0
v -44 -14 0
v -43.5 -14 0
v -43 -14.5 0
v -43.5 -14.5 0
v -43.5 -14 0
v -43 -14 0
v -42.5 -14.5 0
v -43 -14.5 0
v -43 -14 0
v -42.5 -14 0
v -42 -14.5 0
v -42.5 -14.5 0
v -42.5 -14 0
v -42 -14 0
v -58 -15 0
v -58.5 -15 0
v -58.5 -14.5 0
v -58 -14.5 0
v -57.5 -15 0
v -58 -15 0
v -58 -14.5 0
v -57.5 -14.5 0
v -57 -15 0
v -57.5 -15 0
v -57.5 -14.5 0
v -57 -14.5 0
v -56.5 -15 0
v -57 -15 0
v -57 -14.5 0
v -56.5 -14.5 0
v -52 -15 0
v -52.5 -15 0
v -52.5 -14.5 0
v -52 -14.5 0
v -51.5 -15 0
v -52 -15 0
v -52 -14.5 0
v -51.5 -14.5 0
v -51 -15 0
v -51.5 -15 0
v -51.5 -14.5 0
v -51 -14.5 0
v -50.5 -15 0
v -51 -15 0
v -51 -14.5 0
v -50.5 -14.5 0
v -43.5 -15 0
v -44 -15 0
v -44 -14.5 0
v -43.5 -14.5 0
v -43 -15 0
v -43.5 -15 0
v -43.5 -14.5 0
v -43 -14.5 0
v -42.5 -15 0
v -43 -15 0
v -43 -14.5 0
v -42.5 -14.5 0
v -42 -15 0
v -42.5 -15 0
v -42.5 -14.5 0
v -42 -14.5 0
v -58 -15.5 0
v -58.5 -15.5 0
v -58.5 -15 0
v -58 -15 0
v -57.5 -15.5 0
v -58 -15.5 0
v -58 -15 0
v -57.5 -15 0
v -57 -15.5 0
v -57.5 -15.5 0
v -57.5 -15 0
v -57 -15 0
v -56.5 -15.5 0
v -57 -15.5 0
v -57 -15 0
v -56.5 -15 0
v -52 -15.5 0
v -52.5 -15.5 0
v -52.5 -15 0
v -52 -15 0
v -51.5 -15.5 0
v -52 -15.5 0
v -52 -15 0
v -51.5 -15 0
v -51 -15.5 0
v -51.5 -15.5 0
v -51.5 -15 0
v -51 -15 0
v -50.5 -15.5 0
v -51 -15.5 0
v -51 -15 0
v -50.5 -15 0
v -58 -16 0
v -58.5 -16 0
v -58.5 -15.5 0
v -58 -15.5 0
v -57.5 -16 0
v -58 -16 0
v -58 -15.5 0
v -57.5 -15.5 0
v -57 -16 0
v -57.5 -16 0
v -57.5 -15.5 0
v -57 -15.5 0
v -56.5 -16 0
v -57 -16 0
v -57 -15.5 0
v -56.5 -15.5 0
v -52 -16 0
v -52.5 -16 0
v -52.5 -15.5 0
v -52 -15.5 0
v -51.5 -16 0
v -52 -16 0
v -52 -15.5 0
v -51.5 -15.5 0
v -51 -16 0
v -51.5 -16 0
v -51.5 -15.5 0
v -51 -15.5 0
v -50.5 -16 0
v -51 -16 0
v -51 -15.5 0
v -50.5 -15.5 0
v -52 -16.5 0
v -52.5 -16.5 0
v -52.5 -16 0
v -52 -16 0
v -51.5 -16.5 0
v -52 -16.5 0
v -52 -16 0
v -51.5 -16 0
v -51 -16.5 0
v -51.5 -16.5 0
v -51.5 -16 0
v -51 -16 0
v -50.5 -16.5 0
v -51 -16.5 0
v -51 -16 0
v -50.5 -16 0
v -52 -17 0
v -52.5 -17 0
v -52.5 -16.5 0
v -52 -16.5 0
v -51.5 -17 0
v -52 -17 0
v -52 -16.5 0
v -51.5 -16.5 0
v -51 -17 0
v -51.5 -17 0
v -51.5 -16.5 0
v -51 -16.5 0
v -50.5 -17 0
v -51 -17 0
v -51 -16.5 0
v -50.5 -16.5 0
v -25.5 -17 0
v -26 -17 0
v -26 -16.5 0
v -25.5 -16.5 0
v -25 -17 0
v -25.5 -17 0
v -25.5 -16.5 0
v -25 -16.5 0
v -24.5 -17 0
v -25 -17 0
v -25 -16.5 0
v -24.5 -16.5 0
v -24 -17 0
v -24.5 -17 0
v -24.5 -16.5 0
v -24 -16.5 0
v -25.5 -17.5 0
v -26 -17.5 0
v -26 -17 0
v -25.5 -17 0
v -25 -17.5 0
v -25.5 -17.5 0
v -25.5 -17 0
v -25 -17 0
v -24.5 -17.5 0
v -25 -17.5 0
v -25 -17 0
v -24.5 -17 0
v -24 -17.5 0
v -24.5 -17.5 0
v -24.5 -17 0
v -24 -17 0
v -25.5 -18 0
v -26 -18 0
v -26 -17.5 0
v -25.5 -17.5 0
v -25 -18 0
v -25.5 -18 0
v -25.5 -17.5 0
v -25 -17.5 0
v -24.5 -18 0
v -25 -18 0
v -25 -17.5 0
v -24.5 -17.5 0
v -24 -18 0
v -24.5 -18 0
v -24.5 -17.5 0
v -24 -17.5 0
v -38.5 -18.5 0
v -39 -18.5 0
v -39 -18 0
v -38.5 -18 0
v -38 -18.5 0
v -38.5 -18.5 0
v -38.5 -18 0
v -38 -18 0
v -37.5 -18.5 0
v -38 -18.5 0
v -38 -18 0
v -37.5 -18 0
v -37 -18.5 0
v -37.5 -18.5 0
v -37.5 -18 0
v -37 -18 0
v -25.5 -18.5 0
v -26 -18.5 0
v -26 -18 0
v -25.5 -18 0
v -25 -18.5 0
v -25.5 -18.5 0
v -25.5 -18 0
v -25 -18 0
v -24.5 -18.5 0
v -25 -18.5 0
v -25 -18 0
v -24.5 -18 0
v -24 -18.5 0
v -24.5 -18.5 0
v -24.5 -18 0
v -24 -18 0
v -38.5 -19 0
v -39 -19 0
v -39 -18.5 0
v -38.5 -18.5 0
v -38 -19 0
v -38.5 -19 0
v -38.5 -18.5 0
v -38 -18.5 0
v -37.5 -19 0
v -38 -19 0
v -38 -18.5 0
v -37.5 -18.5 0
v -37 -19 0
v -37.5 -19 0
v -37.5 -18.5 0
v -37 -18.5 0
v -25.5 -19 0
v -26 -19 0
v -26 -18.5 0
v -25.5 -18.5 0
v -25 -19 0
v -25.5 -19 0
v -25.5 -18.5 0
v -25 -18.5 0
v -24.5 -19 0
v -25 -19 0
v -25 -18.5 0
v -24.5 -18.5 0
v -24 -19 0
v -24.5 -19 0
v -24.5 -18.5 0
v -24 -18.5 0
v -38.5 -19.5 0
v -39 -19.5 0
v -39 -19 0
v -38.5 -19 0
v -38 -19.5 0
v -38.5 -19.5 0
v -38.5 -19 0
v -38 -19 0
v -37.5 -19.5 0
v -38 -19.5 0
v -38 -19 0
v -37.5 -19 0
v -37 -19.5 0
v -37.5 -19.5 0
v -37.5 -19 0
v -37 -19 0
v -38.5 -20 0
v -39 -20 0
v -39 -19.5 0
v -38.5 -19.5 0
v -38 -20 0
v -38.5 -20 0
v -38.5 -19.5 0
v -38 -19.5 0
v -37.5 -20 0
v -38 -20 0
v -38 -19.5 0
v -37.5 -19.5 0
v -37 -20 0
v -37.5 -20 0
v -37.5 -19.5 0
v -37 -19.5 0
v -38.5 -20.5 0
v -39 -20.5 0
v -39 -20 0
v -38.5 -20 0
v -38 -20.5 0
v -38.5 -20.5 0
v -38.5 -20 0
v -38 -20 0
v -37.5 -20.5 0
v -38 -20.5 0
v -38 -20 0
v -37.5 -20 0
v -37 -20.5 0
v -37.5 -20.5 0
v -37.5 -20 0
v -37 -20 0
v -46.5 -27.5 0
v -47 -27.5 0
v -47 -27 0
v -46.5 -27 0
v -46 -27.5 0
v -46.5 -27.5 0
v -46.5 -27 0
v -46 -27 0
v -45.5 -27.5 0
v -46 -27.5 0
v -46 -27 0
v -45.5 -27 0
v -45 -27.5 0
v -45.5 -27.5 0
v -45.5 -27 0
v -45 -27 0
v -46.5 -28 0
v -47 -28 0
v -47 -27.5 0
v -46.5 -27.5 0
v -46 -28 0
v -46.5 -28 0
v -46.5 -27.5 0
v -46 -27.5 0
v -45.5 -28 0
v -46 -28 0
v -46 -27.5 0
v -45.5 -27.5 0
v -45 -28 0
v -45.5 -28 0
v -45.5 -27.5 0
v -45 -27.5 0
v -46.5 -28.5 0
v -47 -28.5 0
v -47 -28 0
v -46.5 -28 0
v -46 -28.5 0
v -46.5 -28.5 0
v -46.5 -28 0
v -46 -28 0
v -45.5 -28.5 0
v -46 -28.5 0
v -46 -28 0
v -45.5 -28 0
v -45 -28.5 0
v -45.5 -28.5 0
v -45.5 -28 0
v -45 -28 0
v -46.5 -29 0
v -47 -29 0
v -47 -28.5 0
v -46.5 -28.5 0
v -46 -29 0
v -46.5 -29 0
v -46.5 -28.5 0
v -46 -28.5 0
v -45.5 -29 0
v -46 -29 0
v -46 -28.5 0
v -45.5 -28.5 0
v -45 -29 0
v -45.5 -29 0
v -45.5 -28.5 0
v -45 -28.5 0
v -46.5 -29.5 0
v -47 -29.5 0
v -47 -29 0
v -46.5 -29 0
v -46 -29.5 0
v -46.5 -29.5 0
v -46.5 -29 0
v -46 -29 0
v -45.5 -29.5 0
v -46 -29.5 0
v -46 -29 0
v -45.5 -29 0
v -45 -29.5 0
v -45.5 -29.5 0
v -45.5 -29 0
v -45 -29 0
v -31 -30 0
v -31.5 -30 0
v -31.5 -29.5 0
v -31 -29.5 0
v -30.5 -30 0
v -31 -30 0
v -31 -29.5 0
v -30.5 -29.5 0
v -30 -30 0
v -30.5 -30 0
v -30.5 -29.5 0
v -30 -29.5 0
v -29.5 -30 0
v -30 -30 0
v -30 -29.5 0
v -29.5 -29.5 0
v -31 -30.5 0
v -31.5 -30.5 0
v -31.5 -30 0
v -31 -30 0
v -30.5 -30.5 0
v -31 -30.5 0
v -31 -30 0
v -30.5 -30 0
v -30 -30.5 0
v -30.5 -30.5 0
v -30.5 -30 0
v -30 -30 0
v -29.5 -30.5 0
v -30 -30.5 0
v -30 -30 0
v -29.5 -30 0
v -31 -31 0
v -31.5 -31 0
v -31.5 -30.5 0
v -31 -30.5 0
v -30.5 -31 0
v -31 -31 0
v -31 -30.5 0
v -30.5 -30.5 0
v -30 -31 0
v -30.5 -31 0
v -30.5 -30.5 0
v -30 -30.5 0
v -29.5 -31 0
v -30 -31 0
v -30 -30.5 0
v -29.5 -30.5 0
v -31 -31.5 0
v -31.5 -31.5 0
v -31.5 -31 0
v -31 -31 0
v -30.5 -31.5 0
v -31 -31.5 0
v -31 -31 0
v -30.5 -31 0
v -30 -31.5 0
v -30.5 -31.5 0
v -30.5 -31 0
v -30 -31 0
v -29.5 -31.5 0
v -30 -31.5 0
v -30 -31 0
v -29.5 -31 0
v -31 -32 0
v -31.5 -32 0
v -31.5 -31.5 0
v -31 -31.5 0
v -30.5 -32 0
v -31 -32 0
v -31 -31.5 0
v -30.5 -31.5 0
v -30 -32 0
v -30.5 -32 0
v -30.5 -31.5 0
v -30 -31.5 0
v -29.5 -32 0
v -30 -32 0
v -30 -31.5 0
v -29.5 -31.5 0
v -39.5 -32.5 0
v -40 -32.5 0
v -40 -32 0
v -39.5 -32 0
v -39 -32.5 0
v -39.5 -32.5 0
v -39.5 -32 0
v -39 -32 0
v -38.5 -32.5 0
v -39 -32.5 0
v -39 -32 0
v -38.5 -32 0
v -38 -32.5 0
v -38.5 -32.5 0
v -38.5 -32 0
v -38 -32 0
v -39.5 -33 0
v -40 -33 0
v -40 -32.5 0
v -39.5 -32.5 0
v -39 -33 0
v -39.5 -33 0
v -39.5 -32.5 0
v -39 -32.5 0
v -38.5 -33 0
v -39 -33 0
v -39 -32.5 0
v -38.5 -32.5 0
v -38 -33 0
v -38.5 -33 0
v -38.5 -32.5 0
v -38 -32.5 0
v -39.5 -33.5 0
v -40 -33.5 0
v -40 -33 0
v -39.5 -33 0
v -39 -33.5 0
v -39.5 -33.5 0
v -39.5 -33 0
v -39 -33 0
v -38.5 -33.5 0
v -39 -33.5 0
v -39 -33 0
v -38.5 -33 0
v -38 -33.5 0
v -38.5 -33.5 0
v -38.5 -33 0
v -38 -33 0
v -39.5 -34 0
v -40 -34 0
v -40 -33.5 0
v -39.5 -33.5 0
v -39 -34 0
v -39.5 -34 0
v -39.5 -33.5 0
v -39 -33.5 0
v -38.5 -34 0
v -39 -34 0
v -39 -33.5 0
v -38.5 -33.5 0
v -38 -34 0
v -38.5 -34 0
v -38.5 -33.5 0
v -38 -33.5 0
v -39.5 -34.5 0
v -40 -34.5 0
v -40 -34 0
v -39.5 -34 0
v -39 -34.5 0
v -39.5 -34.5 0
v -39.5 -34 0
v -39 -34 0
v -38.5 -34.5 0
v -39 -34.5 0
v -39 -34 0
v -38.5 -34 0
v -38 -34.5 0
v -38.5 -34.5 0
v -38.5 -34 0
v -38 -34 0

# Texture cooridinates (Count = 60)
vt 0.8333333 0.8333333
vt 0.9166667 0.8333333
vt 0.9166667 1
vt 0.8333333 1
vt 0.75 0.8333333
vt 0.75 1
vt 0.6666667 0.8333333
vt 0.6666667 1
vt 0.5833333 0.8333333
vt 0.5833333 1
vt 0.8333333 0.6666666
vt 0.9166667 0.6666666
vt 0.75 0.6666666
vt 0.6666667 0.6666666
vt 0.5833333 0.6666666
vt 0.8333333 0.5
vt 0.9166667 0.5
vt 0.75 0.5
vt 0.6666667 0.5
vt 0.5833333 0.5
vt 0.8333333 0.3333333
vt 0.9166667 0.3333333
vt 0.75 0.3333333
vt 0.6666667 0.3333333
vt 0.5833333 0.3333333
vt 0.8333333 0.1666667
vt 0.9166667 0.1666667
vt 0.75 0.1666667
vt 0.6666667 0.1666667
vt 0.5833333 0.1666667
vt 0.3333333 0.8333333
vt 0.4166667 0.8333333
vt 0.4166667 1
vt 0.3333333 1
vt 0.25 0.8333333
vt 0.25 1
vt 0.1666667 0.8333333
vt 0.1666667 1
vt 0.08333334 0.8333333
vt 0.08333334 1
vt 0.3333333 0.6666666
vt 0.4166667 0.6666666
vt 0.25 0.6666666
vt 0.1666667 0.6666666
vt 0.08333334 0.6666666
vt 0.3333333 0.5
vt 0.4166667 0.5
vt 0.25 0.5
vt 0.1666667 0.5
vt 0.08333334 0.5
vt 0.3333333 0.3333333
vt 0.4166667 0.3333333
vt 0.25 0.3333333
vt 0.1666667 0.3333333
vt 0.08333334 0.3333333
vt 0.3333333 0.1666667
vt 0.4166667 0.1666667
vt 0.25 0.1666667
vt 0.1666667 0.1666667
vt 0.08333334 0.1666667

# Normal
vn 0 0 -1

# Mesh description
g firstLevel_mesh_0006

# Faces
f 1/1/1 2/2/1 3/3/1 4/4/1
f 5/5/1 6/1/1 7/4/1 8/6/1
f 9/7/1 10/5/1 11/6/1 12/8/1
f 13/9/1 14/7/1 15/8/1 16/10/1
f 17/11/1 18/12/1 19/2/1 20/1/1
f 21/13/1 22/11/1 23/1/1 24/5/1
f 25/14/1 26/13/1 27/5/1 28/7/1
f 29/15/1 30/14/1 31/7/1 32/9/1
f 33/16/1 34/17/1 35/12/1 36/11/1
f 37/18/1 38/16/1 39/11/1 40/13/1
f 41/19/1 42/18/1 43/13/1 44/14/1
f 45/20/1 46/19/1 47/14/1 48/15/1
f 49/21/1 50/22/1 51/17/1 52/16/1
f 53/23/1 54/21/1 55/16/1 56/18/1
f 57/24/1 58/23/1 59/18/1 60/19/1
f 61/25/1 62/24/1 63/19/1 64/20/1
f 65/1/1 66/2/1 67/3/1 68/4/1
f 69/5/1 70/1/1 71/4/1 72/6/1
f 73/7/1 74/5/1 75/6/1 76/8/1
f 77/9/1 78/7/1 79/8/1 80/10/1
f 81/26/1 82/27/1 83/22/1 84/21/1
f 85/28/1 86/26/1 87/21/1 88/23/1
f 89/29/1 90/28/1 91/23/1 92/24/1
f 93/30/1 94/29/1 95/24/1 96/25/1
f 97/11/1 98/12/1 99/2/1 100/1/1
f 101/13/1 102/11/1 103/1/1 104/5/1
f 105/14/1 106/13/1 107/5/1 108/7/1
f 109/15/1 110/14/1 111/7/1 112/9/1
f 113/31/1 114/32/1 115/33/1 116/34/1
f 117/35/1 118/31/1 119/34/1 120/36/1
f 121/37/1 122/35/1 123/36/1 124/38/1
f 125/39/1 126/37/1 127/38/1 128/40/1
f 129/16/1 130/17/1 131/12/1 132/11/1
f 133/18/1 134/16/1 135/11/1 136/13/1
f 137/19/1 138/18/1 139/13/1 140/14/1
f 141/20/1 142/19/1 143/14/1 144/15/1
f 145/41/1 146/42/1 147/32/1 148/31/1
f 149/43/1 150/41/1 151/31/1 152/35/1
f 153/44/1 154/43/1 155/35/1 156/37/1
f 157/45/1 158/44/1 159/37/1 160/39/1
f 161/21/1 162/22/1 163/17/1 164/16/1
f 165/23/1 166/21/1 167/16/1 168/18/1
f 169/24/1 170/23/1 171/18/1 172/19/1
f 173/25/1 174/24/1 175/19/1 176/20/1
f 177/46/1 178/47/1 179/42/1 180/41/1
f 181/48/1 182/46/1 183/41/1 184/43/1
f 185/49/1 186/48/1 187/43/1 188/44/1
f 189/50/1 190/49/1 191/44/1 192/45/1
f 193/1/1 194/2/1 195/3/1 196/4/1
f 197/5/1 198/1/1 199/4/1 200/6/1
f 201/7/1 202/5/1 203/6/1 204/8/1
f 205/9/1 206/7/1 207/8/1 208/10/1
f 209/26/1 210/27/1 211/22/1 212/21/1
f 213/28/1 214/26/1 215/21/1 216/23/1
f 217/29/1 218/28/1 219/23/1 220/24/1
f 221/30/1 222/29/1 223/24/1 224/25/1
f 225/51/1 226/52/1 227/47/1 228/46/1
f 229/53/1 230/51/1 231/46/1 232/48/1
f 233/54/1 234/53/1 235/48/1 236/49/1
f 237/55/1 238/54/1 239/49/1 240/50/1
f 241/11/1 242/12/1 243/2/1 244/1/1
f 245/13/1 246/11/1 247/1/1 248/5/1
f 249/14/1 250/13/1 251/5/1 252/7/1
f 253/15/1 254/14/1 255/7/1 256/9/1
f 257/56/1 258/57/1 259/52/1 260/51/1
f 261/58/1 262/56/1 263/51/1 264/53/1
f 265/59/1 266/58/1 267/53/1 268/54/1
f 269/60/1 270/59/1 271/54/1 272/55/1
f 273/16/1 274/17/1 275/12/1 276/11/1
f 277/18/1 278/16/1 279/11/1 280/13/1
f 281/19/1 282/18/1 283/13/1 284/14/1
f 285/20/1 286/19/1 287/14/1 288/15/1
f 289/21/1 290/22/1 291/17/1 292/16/1
f 293/23/1 294/21/1 295/16/1 296/18/1
f 297/24/1 298/23/1 299/18/1 300/19/1
f 301/25/1 302/24/1 303/19/1 304/20/1
f 305/26/1 306/27/1 307/22/1 308/21/1
f 309/28/1 310/26/1 311/21/1 312/23/1
f 313/29/1 314/28/1 315/23/1 316/24/1
f 317/30/1 318/29/1 319/24/1 320/25/1
f 321/31/1 322/32/1 323/33/1 324/34/1
f 325/35/1 326/31/1 327/34/1 328/36/1
f 329/37/1 330/35/1 331/36/1 332/38/1
f 333/39/1 334/37/1 335/38/1 336/40/1
f 337/41/1 338/42/1 339/32/1 340/31/1
f 341/43/1 342/41/1 343/31/1 344/35/1
f 345/44/1 346/43/1 347/35/1 348/37/1
f 349/45/1 350/44/1 351/37/1 352/39/1
f 353/46/1 354/47/1 355/42/1 356/41/1
f 357/48/1 358/46/1 359/41/1 360/43/1
f 361/49/1 362/48/1 363/43/1 364/44/1
f 365/50/1 366/49/1 367/44/1 368/45/1
f 369/31/1 370/32/1 371/33/1 372/34/1
f 373/35/1 374/31/1 375/34/1 376/36/1
f 377/37/1 378/35/1 379/36/1 380/38/1
f 381/39/1 382/37/1 383/38/1 384/40/1
f 385/51/1 386/52/1 387/47/1 388/46/1
f 389/53/1 390/51/1 391/46/1 392/48/1
f 393/54/1 394/53/1 395/48/1 396/49/1
f 397/55/1 398/54/1 399/49/1 400/50/1
f 401/41/1 402/42/1 403/32/1 404/31/1
f 405/43/1 406/41/1 407/31/1 408/35/1
f 409/44/1 410/43/1 411/35/1 412/37/1
f 413/45/1 414/44/1 415/37/1 416/39/1
f 417/56/1 418/57/1 419/52/1 420/51/1
f 421/58/1 422/56/1 423/51/1 424/53/1
f 425/59/1 426/58/1 427/53/1 428/54/1
f 429/60/1 430/59/1 431/54/1 432/55/1
f 433/46/1 434/47/1 435/42/1 436/41/1
f 437/48/1 438/46/1 439/41/1 440/43/1
f 441/49/1 442/48/1 443/43/1 444/44/1
f 445/50/1 446/49/1 447/44/1 448/45/1
f 449/51/1 450/52/1 451/47/1 452/46/1
f 453/53/1 454/51/1 455/46/1 456/48/1
f 457/54/1 458/53/1 459/48/1 460/49/1
f 461/55/1 462/54/1 463/49/1 464/50/1
f 465/56/1 466/57/1 467/52/1 468/51/1
f 469/58/1 470/56/1 471/51/1 472/53/1
f 473/59/1 474/58/1 475/53/1 476/54/1
f 477/60/1 478/59/1 479/54/1 480/55/1
f 481/31/1 482/32/1 483/33/1 484/34/1
f 485/35/1 486/31/1 487/34/1 488/36/1
f 489/37/1 490/35/1 491/36/1 492/38/1
f 493/39/1 494/37/1 495/38/1 496/40/1
f 497/41/1 498/42/1 499/32/1 500/31/1
f 501/43/1 502/41/1 503/31/1 504/35/1
f 505/44/1 506/43/1 507/35/1 508/37/1
f 509/45/1 510/44/1 511/37/1 512/39/1
f 513/46/1 514/47/1 515/42/1 516/41/1
f 517/48/1 518/46/1 519/41/1 520/43/1
f 521/49/1 522/48/1 523/43/1 524/44/1
f 525/50/1 526/49/1 527/44/1 528/45/1
f 529/51/1 530/52/1 531/47/1 532/46/1
f 533/53/1 534/51/1 535/46/1 536/48/1
f 537/54/1 538/53/1 539/48/1 540/49/1
f 541/55/1 542/54/1 543/49/1 544/50/1
f 545/56/1 546/57/1 547/52/1 548/51/1
f 549/58/1 550/56/1 551/51/1 552/53/1
f 553/59/1 554/58/1 555/53/1 556/54/1
f 557/60/1 558/59/1 559/54/1 560/55/1
f 561/31/1 562/32/1 563/33/1 564/34/1
f 565/35/1 566/31/1 567/34/1 568/36/1
f 569/37/1 570/35/1 571/36/1 572/38/1
f 573/39/1 574/37/1 575/38/1 576/40/1
f 577/41/1 578/42/1 579/32/1 580/31/1
f 581/43/1 582/41/1 583/31/1 584/35/1
f 585/44/1 586/43/1 587/35/1 588/37/1
f 589/45/1 590/44/1 591/37/1 592/39/1
f 593/46/1 594/47/1 595/42/1 596/41/1
f 597/48/1 598/46/1 599/41/1 600/43/1
f 601/49/1 602/48/1 603/43/1 604/44/1
f 605/50/1 606/49/1 607/44/1 608/45/1
f 609/51/1 610/52/1 611/47/1 612/46/1
f 613/53/1 614/51/1 615/46/1 616/48/1
f 617/54/1 618/53/1 619/48/1 620/49/1
f 621/55/1 622/54/1 623/49/1 624/50/1
f 625/56/1 626/57/1 627/52/1 628/51/1
f 629/58/1 630/56/1 631/51/1 632/53/1
f 633/59/1 634/58/1 635/53/1 636/54/1
f 637/60/1 638/59/1 639/54/1 640/55/1
f 641/1/1 642/2/1 643/3/1 644/4/1
f 645/5/1 646/1/1 647/4/1 648/6/1
f 649/7/1 650/5/1 651/6/1 652/8/1
f 653/9/1 654/7/1 655/8/1 656/10/1
f 657/11/1 658/12/1 659/2/1 660/1/1
f 661/13/1 662/11/1 663/1/1 664/5/1
f 665/14/1 666/13/1 667/5/1 668/7/1
f 669/15/1 670/14/1 671/7/1 672/9/1
f 673/16/1 674/17/1 675/12/1 676/11/1
f 677/18/1 678/16/1 679/11/1 680/13/1
f 681/19/1 682/18/1 683/13/1 684/14/1
f 685/20/1 686/19/1 687/14/1 688/15/1
f 689/21/1 690/22/1 691/17/1 692/16/1
f 693/23/1 694/21/1 695/16/1 696/18/1
f 697/24/1 698/23/1 699/18/1 700/19/1
f 701/25/1 702/24/1 703/19/1 704/20/1
f 705/26/1 706/27/1 707/22/1 708/21/1
f 709/28/1 710/26/1 711/21/1 712/23/1
f 713/29/1 714/28/1 715/23/1 716/24/1
f 717/30/1 718/29/1 719/24/1 720/25/1

