# Tiled2Unity generated file. Do not modify by hand.
# Wavefront file for 'firstLevel_mesh_0004.obj'

# Vertices (Count = 384)
v -35 -16 0
v -35.5 -16 0
v -35.5 -15.5 0
v -35 -15.5 0
v -34.5 -16 0
v -35 -16 0
v -35 -15.5 0
v -34.5 -15.5 0
v -34 -16 0
v -34.5 -16 0
v -34.5 -15.5 0
v -34 -15.5 0
v -33.5 -16 0
v -34 -16 0
v -34 -15.5 0
v -33.5 -15.5 0
v -33 -16 0
v -33.5 -16 0
v -33.5 -15.5 0
v -33 -15.5 0
v -32.5 -16 0
v -33 -16 0
v -33 -15.5 0
v -32.5 -15.5 0
v -35 -16.5 0
v -35.5 -16.5 0
v -35.5 -16 0
v -35 -16 0
v -34.5 -16.5 0
v -35 -16.5 0
v -35 -16 0
v -34.5 -16 0
v -34 -16.5 0
v -34.5 -16.5 0
v -34.5 -16 0
v -34 -16 0
v -33.5 -16.5 0
v -34 -16.5 0
v -34 -16 0
v -33.5 -16 0
v -33 -16.5 0
v -33.5 -16.5 0
v -33.5 -16 0
v -33 -16 0
v -32.5 -16.5 0
v -33 -16.5 0
v -33 -16 0
v -32.5 -16 0
v -35 -17 0
v -35.5 -17 0
v -35.5 -16.5 0
v -35 -16.5 0
v -34.5 -17 0
v -35 -17 0
v -35 -16.5 0
v -34.5 -16.5 0
v -34 -17 0
v -34.5 -17 0
v -34.5 -16.5 0
v -34 -16.5 0
v -33.5 -17 0
v -34 -17 0
v -34 -16.5 0
v -33.5 -16.5 0
v -33 -17 0
v -33.5 -17 0
v -33.5 -16.5 0
v -33 -16.5 0
v -32.5 -17 0
v -33 -17 0
v -33 -16.5 0
v -32.5 -16.5 0
v -46 -17.5 0
v -46.5 -17.5 0
v -46.5 -17 0
v -46 -17 0
v -45.5 -17.5 0
v -46 -17.5 0
v -46 -17 0
v -45.5 -17 0
v -45 -17.5 0
v -45.5 -17.5 0
v -45.5 -17 0
v -45 -17 0
v -44.5 -17.5 0
v -45 -17.5 0
v -45 -17 0
v -44.5 -17 0
v -44 -17.5 0
v -44.5 -17.5 0
v -44.5 -17 0
v -44 -17 0
v -43.5 -17.5 0
v -44 -17.5 0
v -44 -17 0
v -43.5 -17 0
v -35 -17.5 0
v -35.5 -17.5 0
v -35.5 -17 0
v -35 -17 0
v -34.5 -17.5 0
v -35 -17.5 0
v -35 -17 0
v -34.5 -17 0
v -34 -17.5 0
v -34.5 -17.5 0
v -34.5 -17 0
v -34 -17 0
v -33.5 -17.5 0
v -34 -17.5 0
v -34 -17 0
v -33.5 -17 0
v -33 -17.5 0
v -33.5 -17.5 0
v -33.5 -17 0
v -33 -17 0
v -32.5 -17.5 0
v -33 -17.5 0
v -33 -17 0
v -32.5 -17 0
v -46 -18 0
v -46.5 -18 0
v -46.5 -17.5 0
v -46 -17.5 0
v -45.5 -18 0
v -46 -18 0
v -46 -17.5 0
v -45.5 -17.5 0
v -45 -18 0
v -45.5 -18 0
v -45.5 -17.5 0
v -45 -17.5 0
v -44.5 -18 0
v -45 -18 0
v -45 -17.5 0
v -44.5 -17.5 0
v -44 -18 0
v -44.5 -18 0
v -44.5 -17.5 0
v -44 -17.5 0
v -43.5 -18 0
v -44 -18 0
v -44 -17.5 0
v -43.5 -17.5 0
v -35 -18 0
v -35.5 -18 0
v -35.5 -17.5 0
v -35 -17.5 0
v -34.5 -18 0
v -35 -18 0
v -35 -17.5 0
v -34.5 -17.5 0
v -34 -18 0
v -34.5 -18 0
v -34.5 -17.5 0
v -34 -17.5 0
v -33.5 -18 0
v -34 -18 0
v -34 -17.5 0
v -33.5 -17.5 0
v -33 -18 0
v -33.5 -18 0
v -33.5 -17.5 0
v -33 -17.5 0
v -32.5 -18 0
v -33 -18 0
v -33 -17.5 0
v -32.5 -17.5 0
v -46 -18.5 0
v -46.5 -18.5 0
v -46.5 -18 0
v -46 -18 0
v -45.5 -18.5 0
v -46 -18.5 0
v -46 -18 0
v -45.5 -18 0
v -45 -18.5 0
v -45.5 -18.5 0
v -45.5 -18 0
v -45 -18 0
v -44.5 -18.5 0
v -45 -18.5 0
v -45 -18 0
v -44.5 -18 0
v -44 -18.5 0
v -44.5 -18.5 0
v -44.5 -18 0
v -44 -18 0
v -43.5 -18.5 0
v -44 -18.5 0
v -44 -18 0
v -43.5 -18 0
v -35 -18.5 0
v -35.5 -18.5 0
v -35.5 -18 0
v -35 -18 0
v -34.5 -18.5 0
v -35 -18.5 0
v -35 -18 0
v -34.5 -18 0
v -34 -18.5 0
v -34.5 -18.5 0
v -34.5 -18 0
v -34 -18 0
v -33.5 -18.5 0
v -34 -18.5 0
v -34 -18 0
v -33.5 -18 0
v -33 -18.5 0
v -33.5 -18.5 0
v -33.5 -18 0
v -33 -18 0
v -32.5 -18.5 0
v -33 -18.5 0
v -33 -18 0
v -32.5 -18 0
v -46 -19 0
v -46.5 -19 0
v -46.5 -18.5 0
v -46 -18.5 0
v -45.5 -19 0
v -46 -19 0
v -46 -18.5 0
v -45.5 -18.5 0
v -45 -19 0
v -45.5 -19 0
v -45.5 -18.5 0
v -45 -18.5 0
v -44.5 -19 0
v -45 -19 0
v -45 -18.5 0
v -44.5 -18.5 0
v -44 -19 0
v -44.5 -19 0
v -44.5 -18.5 0
v -44 -18.5 0
v -43.5 -19 0
v -44 -19 0
v -44 -18.5 0
v -43.5 -18.5 0
v -35 -19 0
v -35.5 -19 0
v -35.5 -18.5 0
v -35 -18.5 0
v -34.5 -19 0
v -35 -19 0
v -35 -18.5 0
v -34.5 -18.5 0
v -34 -19 0
v -34.5 -19 0
v -34.5 -18.5 0
v -34 -18.5 0
v -33.5 -19 0
v -34 -19 0
v -34 -18.5 0
v -33.5 -18.5 0
v -33 -19 0
v -33.5 -19 0
v -33.5 -18.5 0
v -33 -18.5 0
v -32.5 -19 0
v -33 -19 0
v -33 -18.5 0
v -32.5 -18.5 0
v -46 -19.5 0
v -46.5 -19.5 0
v -46.5 -19 0
v -46 -19 0
v -45.5 -19.5 0
v -46 -19.5 0
v -46 -19 0
v -45.5 -19 0
v -45 -19.5 0
v -45.5 -19.5 0
v -45.5 -19 0
v -45 -19 0
v -44.5 -19.5 0
v -45 -19.5 0
v -45 -19 0
v -44.5 -19 0
v -44 -19.5 0
v -44.5 -19.5 0
v -44.5 -19 0
v -44 -19 0
v -43.5 -19.5 0
v -44 -19.5 0
v -44 -19 0
v -43.5 -19 0
v -35 -19.5 0
v -35.5 -19.5 0
v -35.5 -19 0
v -35 -19 0
v -34.5 -19.5 0
v -35 -19.5 0
v -35 -19 0
v -34.5 -19 0
v -34 -19.5 0
v -34.5 -19.5 0
v -34.5 -19 0
v -34 -19 0
v -33.5 -19.5 0
v -34 -19.5 0
v -34 -19 0
v -33.5 -19 0
v -33 -19.5 0
v -33.5 -19.5 0
v -33.5 -19 0
v -33 -19 0
v -32.5 -19.5 0
v -33 -19.5 0
v -33 -19 0
v -32.5 -19 0
v -46 -20 0
v -46.5 -20 0
v -46.5 -19.5 0
v -46 -19.5 0
v -45.5 -20 0
v -46 -20 0
v -46 -19.5 0
v -45.5 -19.5 0
v -45 -20 0
v -45.5 -20 0
v -45.5 -19.5 0
v -45 -19.5 0
v -44.5 -20 0
v -45 -20 0
v -45 -19.5 0
v -44.5 -19.5 0
v -44 -20 0
v -44.5 -20 0
v -44.5 -19.5 0
v -44 -19.5 0
v -43.5 -20 0
v -44 -20 0
v -44 -19.5 0
v -43.5 -19.5 0
v -35 -20 0
v -35.5 -20 0
v -35.5 -19.5 0
v -35 -19.5 0
v -34.5 -20 0
v -35 -20 0
v -35 -19.5 0
v -34.5 -19.5 0
v -34 -20 0
v -34.5 -20 0
v -34.5 -19.5 0
v -34 -19.5 0
v -33.5 -20 0
v -34 -20 0
v -34 -19.5 0
v -33.5 -19.5 0
v -33 -20 0
v -33.5 -20 0
v -33.5 -19.5 0
v -33 -19.5 0
v -32.5 -20 0
v -33 -20 0
v -33 -19.5 0
v -32.5 -19.5 0
v -35 -20.5 0
v -35.5 -20.5 0
v -35.5 -20 0
v -35 -20 0
v -34.5 -20.5 0
v -35 -20.5 0
v -35 -20 0
v -34.5 -20 0
v -34 -20.5 0
v -34.5 -20.5 0
v -34.5 -20 0
v -34 -20 0
v -33.5 -20.5 0
v -34 -20.5 0
v -34 -20 0
v -33.5 -20 0
v -33 -20.5 0
v -33.5 -20.5 0
v -33.5 -20 0
v -33 -20 0
v -32.5 -20.5 0
v -33 -20.5 0
v -33 -20 0
v -32.5 -20 0

# Texture cooridinates (Count = 134)
vt 0.2777778 0.5
vt 0.3333333 0.5
vt 0.3333333 0.5714285
vt 0.2777778 0.5714285
vt 0.2222222 0.5
vt 0.2222222 0.5714285
vt 0.1666667 0.5
vt 0.1666667 0.5714285
vt 0.1111111 0.5
vt 0.1111111 0.5714285
vt 0.05555556 0.5
vt 0.05555556 0.5714285
vt 0 0.5
vt 0 0.5714285
vt 0.2777778 0.4285714
vt 0.3333333 0.4285714
vt 0.2222222 0.4285714
vt 0.1666667 0.4285714
vt 0.1111111 0.4285714
vt 0.05555556 0.4285714
vt 0 0.4285714
vt 0.2777778 0.3571429
vt 0.3333333 0.3571429
vt 0.2222222 0.3571429
vt 0.1666667 0.3571429
vt 0.1111111 0.3571429
vt 0.05555556 0.3571429
vt 0 0.3571429
vt 0.2777778 0.9285714
vt 0.3333333 0.9285714
vt 0.3333333 1
vt 0.2777778 1
vt 0.2222222 0.9285714
vt 0.2222222 1
vt 0.1666667 0.9285714
vt 0.1666667 1
vt 0.1111111 0.9285714
vt 0.1111111 1
vt 0.05555556 0.9285714
vt 0.05555556 1
vt 0 0.9285714
vt 0 1
vt 0.2777778 0.2857143
vt 0.3333333 0.2857143
vt 0.2222222 0.2857143
vt 0.1666667 0.2857143
vt 0.1111111 0.2857143
vt 0.05555556 0.2857143
vt 0 0.2857143
vt 0.2777778 0.8571429
vt 0.3333333 0.8571429
vt 0.2222222 0.8571429
vt 0.1666667 0.8571429
vt 0.1111111 0.8571429
vt 0.05555556 0.8571429
vt 0 0.8571429
vt 0.2777778 0.2142857
vt 0.3333333 0.2142857
vt 0.2222222 0.2142857
vt 0.1666667 0.2142857
vt 0.1111111 0.2142857
vt 0.05555556 0.2142857
vt 0 0.2142857
vt 0.2777778 0.7857143
vt 0.3333333 0.7857143
vt 0.2222222 0.7857143
vt 0.1666667 0.7857143
vt 0.1111111 0.7857143
vt 0.05555556 0.7857143
vt 0 0.7857143
vt 0.2777778 0.1428571
vt 0.3333333 0.1428571
vt 0.2222222 0.1428571
vt 0.1666667 0.1428571
vt 0.1111111 0.1428571
vt 0.05555556 0.1428571
vt 0 0.1428571
vt 0.2777778 0.7142857
vt 0.3333333 0.7142857
vt 0.2222222 0.7142857
vt 0.1666667 0.7142857
vt 0.1111111 0.7142857
vt 0.05555556 0.7142857
vt 0 0.7142857
vt 0.2777778 0.0714286
vt 0.3333333 0.0714286
vt 0.2222222 0.0714286
vt 0.6111111 0.9285714
vt 0.6666667 0.9285714
vt 0.6666667 1
vt 0.6111111 1
vt 0.5555556 0.9285714
vt 0.5555556 1
vt 0.05555556 0.0714286
vt 0.1111111 0.0714286
vt 0 0.0714286
vt 0.2777778 0.6428571
vt 0.3333333 0.6428571
vt 0.2222222 0.6428571
vt 0.1666667 0.6428571
vt 0.1111111 0.6428571
vt 0.05555556 0.6428571
vt 0 0.6428571
vt 0.2777778 0
vt 0.3333333 0
vt 0.2222222 0
vt 0.6111111 0.8571429
vt 0.6666667 0.8571429
vt 0.5555556 0.8571429
vt 0.05555556 0
vt 0.1111111 0
vt 0 0
vt 0.6111111 0.2142857
vt 0.6666667 0.2142857
vt 0.6666667 0.2857143
vt 0.6111111 0.2857143
vt 0.5555556 0.2142857
vt 0.5555556 0.2857143
vt 0.5 0.8571429
vt 0.5 0.9285714
vt 0.4444444 0.8571429
vt 0.4444444 0.9285714
vt 0.3888889 0.2142857
vt 0.4444444 0.2142857
vt 0.4444444 0.2857143
vt 0.3888889 0.2857143
vt 0.6111111 0.1428571
vt 0.6666667 0.1428571
vt 0.5555556 0.1428571
vt 0.5 0.7857143
vt 0.5555556 0.7857143
vt 0.4444444 0.7857143
vt 0.3888889 0.1428571
vt 0.4444444 0.1428571

# Normal
vn 0 0 -1

# Mesh description
g firstLevel_mesh_0004

# Faces
f 1/1/1 2/2/1 3/3/1 4/4/1
f 5/5/1 6/1/1 7/4/1 8/6/1
f 9/7/1 10/5/1 11/6/1 12/8/1
f 13/9/1 14/7/1 15/8/1 16/10/1
f 17/11/1 18/9/1 19/10/1 20/12/1
f 21/13/1 22/11/1 23/12/1 24/14/1
f 25/15/1 26/16/1 27/2/1 28/1/1
f 29/17/1 30/15/1 31/1/1 32/5/1
f 33/18/1 34/17/1 35/5/1 36/7/1
f 37/19/1 38/18/1 39/7/1 40/9/1
f 41/20/1 42/19/1 43/9/1 44/11/1
f 45/21/1 46/20/1 47/11/1 48/13/1
f 49/22/1 50/23/1 51/16/1 52/15/1
f 53/24/1 54/22/1 55/15/1 56/17/1
f 57/25/1 58/24/1 59/17/1 60/18/1
f 61/26/1 62/25/1 63/18/1 64/19/1
f 65/27/1 66/26/1 67/19/1 68/20/1
f 69/28/1 70/27/1 71/20/1 72/21/1
f 73/29/1 74/30/1 75/31/1 76/32/1
f 77/33/1 78/29/1 79/32/1 80/34/1
f 81/35/1 82/33/1 83/34/1 84/36/1
f 85/37/1 86/35/1 87/36/1 88/38/1
f 89/39/1 90/37/1 91/38/1 92/40/1
f 93/41/1 94/39/1 95/40/1 96/42/1
f 97/43/1 98/44/1 99/23/1 100/22/1
f 101/45/1 102/43/1 103/22/1 104/24/1
f 105/46/1 106/45/1 107/24/1 108/25/1
f 109/47/1 110/46/1 111/25/1 112/26/1
f 113/48/1 114/47/1 115/26/1 116/27/1
f 117/49/1 118/48/1 119/27/1 120/28/1
f 121/50/1 122/51/1 123/30/1 124/29/1
f 125/52/1 126/50/1 127/29/1 128/33/1
f 129/53/1 130/52/1 131/33/1 132/35/1
f 133/54/1 134/53/1 135/35/1 136/37/1
f 137/55/1 138/54/1 139/37/1 140/39/1
f 141/56/1 142/55/1 143/39/1 144/41/1
f 145/57/1 146/58/1 147/44/1 148/43/1
f 149/59/1 150/57/1 151/43/1 152/45/1
f 153/60/1 154/59/1 155/45/1 156/46/1
f 157/61/1 158/60/1 159/46/1 160/47/1
f 161/62/1 162/61/1 163/47/1 164/48/1
f 165/63/1 166/62/1 167/48/1 168/49/1
f 169/64/1 170/65/1 171/51/1 172/50/1
f 173/66/1 174/64/1 175/50/1 176/52/1
f 177/67/1 178/66/1 179/52/1 180/53/1
f 181/68/1 182/67/1 183/53/1 184/54/1
f 185/69/1 186/68/1 187/54/1 188/55/1
f 189/70/1 190/69/1 191/55/1 192/56/1
f 193/71/1 194/72/1 195/58/1 196/57/1
f 197/73/1 198/71/1 199/57/1 200/59/1
f 201/74/1 202/73/1 203/59/1 204/60/1
f 205/75/1 206/74/1 207/60/1 208/61/1
f 209/76/1 210/75/1 211/61/1 212/62/1
f 213/77/1 214/76/1 215/62/1 216/63/1
f 217/78/1 218/79/1 219/65/1 220/64/1
f 221/80/1 222/78/1 223/64/1 224/66/1
f 225/81/1 226/80/1 227/66/1 228/67/1
f 229/82/1 230/81/1 231/67/1 232/68/1
f 233/83/1 234/82/1 235/68/1 236/69/1
f 237/84/1 238/83/1 239/69/1 240/70/1
f 241/85/1 242/86/1 243/72/1 244/71/1
f 245/87/1 246/85/1 247/71/1 248/73/1
f 249/88/1 250/89/1 251/90/1 252/91/1
f 253/92/1 254/88/1 255/91/1 256/93/1
f 257/94/1 258/95/1 259/75/1 260/76/1
f 261/96/1 262/94/1 263/76/1 264/77/1
f 265/97/1 266/98/1 267/79/1 268/78/1
f 269/99/1 270/97/1 271/78/1 272/80/1
f 273/100/1 274/99/1 275/80/1 276/81/1
f 277/101/1 278/100/1 279/81/1 280/82/1
f 281/102/1 282/101/1 283/82/1 284/83/1
f 285/103/1 286/102/1 287/83/1 288/84/1
f 289/104/1 290/105/1 291/86/1 292/85/1
f 293/106/1 294/104/1 295/85/1 296/87/1
f 297/107/1 298/108/1 299/89/1 300/88/1
f 301/109/1 302/107/1 303/88/1 304/92/1
f 305/110/1 306/111/1 307/95/1 308/94/1
f 309/112/1 310/110/1 311/94/1 312/96/1
f 313/4/1 314/3/1 315/98/1 316/97/1
f 317/6/1 318/4/1 319/97/1 320/99/1
f 321/8/1 322/6/1 323/99/1 324/100/1
f 325/10/1 326/8/1 327/100/1 328/101/1
f 329/12/1 330/10/1 331/101/1 332/102/1
f 333/14/1 334/12/1 335/102/1 336/103/1
f 337/113/1 338/114/1 339/115/1 340/116/1
f 341/117/1 342/113/1 343/116/1 344/118/1
f 345/119/1 346/109/1 347/92/1 348/120/1
f 349/121/1 350/119/1 351/120/1 352/122/1
f 353/123/1 354/124/1 355/125/1 356/126/1
f 357/58/1 358/123/1 359/126/1 360/44/1
f 361/127/1 362/128/1 363/114/1 364/113/1
f 365/129/1 366/127/1 367/113/1 368/117/1
f 369/130/1 370/131/1 371/109/1 372/119/1
f 373/132/1 374/130/1 375/119/1 376/121/1
f 377/133/1 378/134/1 379/124/1 380/123/1
f 381/72/1 382/133/1 383/123/1 384/58/1

