# Tiled2Unity generated file. Do not modify by hand.
# Wavefront file for 'HouseInside_mesh_0004.obj'

# Vertices (Count = 16)
v -1.92 -3.52 0
v -2.24 -3.52 0
v -2.24 -3.2 0
v -1.92 -3.2 0
v -1.6 -3.52 0
v -1.92 -3.52 0
v -1.92 -3.2 0
v -1.6 -3.2 0
v -1.92 -3.84 0
v -2.24 -3.84 0
v -2.24 -3.52 0
v -1.92 -3.52 0
v -1.6 -3.84 0
v -1.92 -3.84 0
v -1.92 -3.52 0
v -1.6 -3.52 0

# Texture cooridinates (Count = 9)
vt 0.75 0.8333333
vt 1 0.8333333
vt 1 1
vt 0.75 1
vt 0.5 0.8333333
vt 0.5 1
vt 0.75 0.6666666
vt 1 0.6666666
vt 0.5 0.6666666

# Normal
vn 0 0 -1

# Mesh description
g HouseInside_mesh_0004

# Faces
f 1/1/1 2/2/1 3/3/1 4/4/1
f 5/5/1 6/1/1 7/4/1 8/6/1
f 9/7/1 10/8/1 11/2/1 12/1/1
f 13/9/1 14/7/1 15/1/1 16/5/1

