# Tiled2Unity generated file. Do not modify by hand.
# Wavefront file for 'HouseInside_mesh_0002.obj'

# Vertices (Count = 728)
v -5.12 -0.96 0
v -5.44 -0.96 0
v -5.44 -0.64 0
v -5.12 -0.64 0
v -4.8 -0.96 0
v -5.12 -0.96 0
v -5.12 -0.64 0
v -4.8 -0.64 0
v -4.48 -0.96 0
v -4.8 -0.96 0
v -4.8 -0.64 0
v -4.48 -0.64 0
v -4.16 -0.96 0
v -4.48 -0.96 0
v -4.48 -0.64 0
v -4.16 -0.64 0
v -3.84 -0.96 0
v -4.16 -0.96 0
v -4.16 -0.64 0
v -3.84 -0.64 0
v -3.52 -0.96 0
v -3.84 -0.96 0
v -3.84 -0.64 0
v -3.52 -0.64 0
v -3.2 -0.96 0
v -3.52 -0.96 0
v -3.52 -0.64 0
v -3.2 -0.64 0
v -2.88 -0.96 0
v -3.2 -0.96 0
v -3.2 -0.64 0
v -2.88 -0.64 0
v -2.56 -0.96 0
v -2.88 -0.96 0
v -2.88 -0.64 0
v -2.56 -0.64 0
v -2.24 -0.96 0
v -2.56 -0.96 0
v -2.56 -0.64 0
v -2.24 -0.64 0
v -1.92 -0.96 0
v -2.24 -0.96 0
v -2.24 -0.64 0
v -1.92 -0.64 0
v -1.6 -0.96 0
v -1.92 -0.96 0
v -1.92 -0.64 0
v -1.6 -0.64 0
v -1.28 -0.96 0
v -1.6 -0.96 0
v -1.6 -0.64 0
v -1.28 -0.64 0
v -5.12 -1.28 0
v -5.44 -1.28 0
v -5.44 -0.96 0
v -5.12 -0.96 0
v -4.8 -1.28 0
v -5.12 -1.28 0
v -5.12 -0.96 0
v -4.8 -0.96 0
v -4.48 -1.28 0
v -4.8 -1.28 0
v -4.8 -0.96 0
v -4.48 -0.96 0
v -4.16 -1.28 0
v -4.48 -1.28 0
v -4.48 -0.96 0
v -4.16 -0.96 0
v -3.84 -1.28 0
v -4.16 -1.28 0
v -4.16 -0.96 0
v -3.84 -0.96 0
v -3.52 -1.28 0
v -3.84 -1.28 0
v -3.84 -0.96 0
v -3.52 -0.96 0
v -3.2 -1.28 0
v -3.52 -1.28 0
v -3.52 -0.96 0
v -3.2 -0.96 0
v -2.88 -1.28 0
v -3.2 -1.28 0
v -3.2 -0.96 0
v -2.88 -0.96 0
v -2.56 -1.28 0
v -2.88 -1.28 0
v -2.88 -0.96 0
v -2.56 -0.96 0
v -2.24 -1.28 0
v -2.56 -1.28 0
v -2.56 -0.96 0
v -2.24 -0.96 0
v -1.92 -1.28 0
v -2.24 -1.28 0
v -2.24 -0.96 0
v -1.92 -0.96 0
v -1.6 -1.28 0
v -1.92 -1.28 0
v -1.92 -0.96 0
v -1.6 -0.96 0
v -1.28 -1.28 0
v -1.6 -1.28 0
v -1.6 -0.96 0
v -1.28 -0.96 0
v -5.12 -1.6 0
v -5.44 -1.6 0
v -5.44 -1.28 0
v -5.12 -1.28 0
v -4.8 -1.6 0
v -5.12 -1.6 0
v -5.12 -1.28 0
v -4.8 -1.28 0
v -4.48 -1.6 0
v -4.8 -1.6 0
v -4.8 -1.28 0
v -4.48 -1.28 0
v -4.16 -1.6 0
v -4.48 -1.6 0
v -4.48 -1.28 0
v -4.16 -1.28 0
v -3.84 -1.6 0
v -4.16 -1.6 0
v -4.16 -1.28 0
v -3.84 -1.28 0
v -3.52 -1.6 0
v -3.84 -1.6 0
v -3.84 -1.28 0
v -3.52 -1.28 0
v -3.2 -1.6 0
v -3.52 -1.6 0
v -3.52 -1.28 0
v -3.2 -1.28 0
v -2.88 -1.6 0
v -3.2 -1.6 0
v -3.2 -1.28 0
v -2.88 -1.28 0
v -2.56 -1.6 0
v -2.88 -1.6 0
v -2.88 -1.28 0
v -2.56 -1.28 0
v -2.24 -1.6 0
v -2.56 -1.6 0
v -2.56 -1.28 0
v -2.24 -1.28 0
v -1.92 -1.6 0
v -2.24 -1.6 0
v -2.24 -1.28 0
v -1.92 -1.28 0
v -1.6 -1.6 0
v -1.92 -1.6 0
v -1.92 -1.28 0
v -1.6 -1.28 0
v -1.28 -1.6 0
v -1.6 -1.6 0
v -1.6 -1.28 0
v -1.28 -1.28 0
v -5.12 -1.92 0
v -5.44 -1.92 0
v -5.44 -1.6 0
v -5.12 -1.6 0
v -4.8 -1.92 0
v -5.12 -1.92 0
v -5.12 -1.6 0
v -4.8 -1.6 0
v -4.48 -1.92 0
v -4.8 -1.92 0
v -4.8 -1.6 0
v -4.48 -1.6 0
v -4.16 -1.92 0
v -4.48 -1.92 0
v -4.48 -1.6 0
v -4.16 -1.6 0
v -3.84 -1.92 0
v -4.16 -1.92 0
v -4.16 -1.6 0
v -3.84 -1.6 0
v -3.52 -1.92 0
v -3.84 -1.92 0
v -3.84 -1.6 0
v -3.52 -1.6 0
v -3.2 -1.92 0
v -3.52 -1.92 0
v -3.52 -1.6 0
v -3.2 -1.6 0
v -2.88 -1.92 0
v -3.2 -1.92 0
v -3.2 -1.6 0
v -2.88 -1.6 0
v -2.56 -1.92 0
v -2.88 -1.92 0
v -2.88 -1.6 0
v -2.56 -1.6 0
v -2.24 -1.92 0
v -2.56 -1.92 0
v -2.56 -1.6 0
v -2.24 -1.6 0
v -1.92 -1.92 0
v -2.24 -1.92 0
v -2.24 -1.6 0
v -1.92 -1.6 0
v -1.6 -1.92 0
v -1.92 -1.92 0
v -1.92 -1.6 0
v -1.6 -1.6 0
v -1.28 -1.92 0
v -1.6 -1.92 0
v -1.6 -1.6 0
v -1.28 -1.6 0
v -5.12 -2.24 0
v -5.44 -2.24 0
v -5.44 -1.92 0
v -5.12 -1.92 0
v -4.8 -2.24 0
v -5.12 -2.24 0
v -5.12 -1.92 0
v -4.8 -1.92 0
v -4.48 -2.24 0
v -4.8 -2.24 0
v -4.8 -1.92 0
v -4.48 -1.92 0
v -4.16 -2.24 0
v -4.48 -2.24 0
v -4.48 -1.92 0
v -4.16 -1.92 0
v -3.84 -2.24 0
v -4.16 -2.24 0
v -4.16 -1.92 0
v -3.84 -1.92 0
v -3.52 -2.24 0
v -3.84 -2.24 0
v -3.84 -1.92 0
v -3.52 -1.92 0
v -3.2 -2.24 0
v -3.52 -2.24 0
v -3.52 -1.92 0
v -3.2 -1.92 0
v -2.88 -2.24 0
v -3.2 -2.24 0
v -3.2 -1.92 0
v -2.88 -1.92 0
v -2.56 -2.24 0
v -2.88 -2.24 0
v -2.88 -1.92 0
v -2.56 -1.92 0
v -2.24 -2.24 0
v -2.56 -2.24 0
v -2.56 -1.92 0
v -2.24 -1.92 0
v -1.92 -2.24 0
v -2.24 -2.24 0
v -2.24 -1.92 0
v -1.92 -1.92 0
v -1.6 -2.24 0
v -1.92 -2.24 0
v -1.92 -1.92 0
v -1.6 -1.92 0
v -1.28 -2.24 0
v -1.6 -2.24 0
v -1.6 -1.92 0
v -1.28 -1.92 0
v -5.12 -2.56 0
v -5.44 -2.56 0
v -5.44 -2.24 0
v -5.12 -2.24 0
v -4.8 -2.56 0
v -5.12 -2.56 0
v -5.12 -2.24 0
v -4.8 -2.24 0
v -4.48 -2.56 0
v -4.8 -2.56 0
v -4.8 -2.24 0
v -4.48 -2.24 0
v -4.16 -2.56 0
v -4.48 -2.56 0
v -4.48 -2.24 0
v -4.16 -2.24 0
v -3.84 -2.56 0
v -4.16 -2.56 0
v -4.16 -2.24 0
v -3.84 -2.24 0
v -3.52 -2.56 0
v -3.84 -2.56 0
v -3.84 -2.24 0
v -3.52 -2.24 0
v -3.2 -2.56 0
v -3.52 -2.56 0
v -3.52 -2.24 0
v -3.2 -2.24 0
v -2.88 -2.56 0
v -3.2 -2.56 0
v -3.2 -2.24 0
v -2.88 -2.24 0
v -2.56 -2.56 0
v -2.88 -2.56 0
v -2.88 -2.24 0
v -2.56 -2.24 0
v -2.24 -2.56 0
v -2.56 -2.56 0
v -2.56 -2.24 0
v -2.24 -2.24 0
v -1.92 -2.56 0
v -2.24 -2.56 0
v -2.24 -2.24 0
v -1.92 -2.24 0
v -1.6 -2.56 0
v -1.92 -2.56 0
v -1.92 -2.24 0
v -1.6 -2.24 0
v -1.28 -2.56 0
v -1.6 -2.56 0
v -1.6 -2.24 0
v -1.28 -2.24 0
v -5.12 -2.88 0
v -5.44 -2.88 0
v -5.44 -2.56 0
v -5.12 -2.56 0
v -4.8 -2.88 0
v -5.12 -2.88 0
v -5.12 -2.56 0
v -4.8 -2.56 0
v -4.48 -2.88 0
v -4.8 -2.88 0
v -4.8 -2.56 0
v -4.48 -2.56 0
v -4.16 -2.88 0
v -4.48 -2.88 0
v -4.48 -2.56 0
v -4.16 -2.56 0
v -3.84 -2.88 0
v -4.16 -2.88 0
v -4.16 -2.56 0
v -3.84 -2.56 0
v -3.52 -2.88 0
v -3.84 -2.88 0
v -3.84 -2.56 0
v -3.52 -2.56 0
v -3.2 -2.88 0
v -3.52 -2.88 0
v -3.52 -2.56 0
v -3.2 -2.56 0
v -2.88 -2.88 0
v -3.2 -2.88 0
v -3.2 -2.56 0
v -2.88 -2.56 0
v -2.56 -2.88 0
v -2.88 -2.88 0
v -2.88 -2.56 0
v -2.56 -2.56 0
v -2.24 -2.88 0
v -2.56 -2.88 0
v -2.56 -2.56 0
v -2.24 -2.56 0
v -1.92 -2.88 0
v -2.24 -2.88 0
v -2.24 -2.56 0
v -1.92 -2.56 0
v -1.6 -2.88 0
v -1.92 -2.88 0
v -1.92 -2.56 0
v -1.6 -2.56 0
v -1.28 -2.88 0
v -1.6 -2.88 0
v -1.6 -2.56 0
v -1.28 -2.56 0
v -5.12 -3.2 0
v -5.44 -3.2 0
v -5.44 -2.88 0
v -5.12 -2.88 0
v -4.8 -3.2 0
v -5.12 -3.2 0
v -5.12 -2.88 0
v -4.8 -2.88 0
v -4.48 -3.2 0
v -4.8 -3.2 0
v -4.8 -2.88 0
v -4.48 -2.88 0
v -4.16 -3.2 0
v -4.48 -3.2 0
v -4.48 -2.88 0
v -4.16 -2.88 0
v -3.84 -3.2 0
v -4.16 -3.2 0
v -4.16 -2.88 0
v -3.84 -2.88 0
v -3.52 -3.2 0
v -3.84 -3.2 0
v -3.84 -2.88 0
v -3.52 -2.88 0
v -3.2 -3.2 0
v -3.52 -3.2 0
v -3.52 -2.88 0
v -3.2 -2.88 0
v -2.88 -3.2 0
v -3.2 -3.2 0
v -3.2 -2.88 0
v -2.88 -2.88 0
v -2.56 -3.2 0
v -2.88 -3.2 0
v -2.88 -2.88 0
v -2.56 -2.88 0
v -2.24 -3.2 0
v -2.56 -3.2 0
v -2.56 -2.88 0
v -2.24 -2.88 0
v -1.92 -3.2 0
v -2.24 -3.2 0
v -2.24 -2.88 0
v -1.92 -2.88 0
v -1.6 -3.2 0
v -1.92 -3.2 0
v -1.92 -2.88 0
v -1.6 -2.88 0
v -1.28 -3.2 0
v -1.6 -3.2 0
v -1.6 -2.88 0
v -1.28 -2.88 0
v -5.12 -3.52 0
v -5.44 -3.52 0
v -5.44 -3.2 0
v -5.12 -3.2 0
v -4.8 -3.52 0
v -5.12 -3.52 0
v -5.12 -3.2 0
v -4.8 -3.2 0
v -4.48 -3.52 0
v -4.8 -3.52 0
v -4.8 -3.2 0
v -4.48 -3.2 0
v -4.16 -3.52 0
v -4.48 -3.52 0
v -4.48 -3.2 0
v -4.16 -3.2 0
v -3.84 -3.52 0
v -4.16 -3.52 0
v -4.16 -3.2 0
v -3.84 -3.2 0
v -3.52 -3.52 0
v -3.84 -3.52 0
v -3.84 -3.2 0
v -3.52 -3.2 0
v -3.2 -3.52 0
v -3.52 -3.52 0
v -3.52 -3.2 0
v -3.2 -3.2 0
v -2.88 -3.52 0
v -3.2 -3.52 0
v -3.2 -3.2 0
v -2.88 -3.2 0
v -2.56 -3.52 0
v -2.88 -3.52 0
v -2.88 -3.2 0
v -2.56 -3.2 0
v -2.24 -3.52 0
v -2.56 -3.52 0
v -2.56 -3.2 0
v -2.24 -3.2 0
v -1.92 -3.52 0
v -2.24 -3.52 0
v -2.24 -3.2 0
v -1.92 -3.2 0
v -1.6 -3.52 0
v -1.92 -3.52 0
v -1.92 -3.2 0
v -1.6 -3.2 0
v -1.28 -3.52 0
v -1.6 -3.52 0
v -1.6 -3.2 0
v -1.28 -3.2 0
v -5.12 -3.84 0
v -5.44 -3.84 0
v -5.44 -3.52 0
v -5.12 -3.52 0
v -4.8 -3.84 0
v -5.12 -3.84 0
v -5.12 -3.52 0
v -4.8 -3.52 0
v -4.48 -3.84 0
v -4.8 -3.84 0
v -4.8 -3.52 0
v -4.48 -3.52 0
v -4.16 -3.84 0
v -4.48 -3.84 0
v -4.48 -3.52 0
v -4.16 -3.52 0
v -3.84 -3.84 0
v -4.16 -3.84 0
v -4.16 -3.52 0
v -3.84 -3.52 0
v -3.52 -3.84 0
v -3.84 -3.84 0
v -3.84 -3.52 0
v -3.52 -3.52 0
v -3.2 -3.84 0
v -3.52 -3.84 0
v -3.52 -3.52 0
v -3.2 -3.52 0
v -2.88 -3.84 0
v -3.2 -3.84 0
v -3.2 -3.52 0
v -2.88 -3.52 0
v -2.56 -3.84 0
v -2.88 -3.84 0
v -2.88 -3.52 0
v -2.56 -3.52 0
v -2.24 -3.84 0
v -2.56 -3.84 0
v -2.56 -3.52 0
v -2.24 -3.52 0
v -1.92 -3.84 0
v -2.24 -3.84 0
v -2.24 -3.52 0
v -1.92 -3.52 0
v -1.6 -3.84 0
v -1.92 -3.84 0
v -1.92 -3.52 0
v -1.6 -3.52 0
v -1.28 -3.84 0
v -1.6 -3.84 0
v -1.6 -3.52 0
v -1.28 -3.52 0
v -5.12 -4.16 0
v -5.44 -4.16 0
v -5.44 -3.84 0
v -5.12 -3.84 0
v -4.8 -4.16 0
v -5.12 -4.16 0
v -5.12 -3.84 0
v -4.8 -3.84 0
v -4.48 -4.16 0
v -4.8 -4.16 0
v -4.8 -3.84 0
v -4.48 -3.84 0
v -4.16 -4.16 0
v -4.48 -4.16 0
v -4.48 -3.84 0
v -4.16 -3.84 0
v -3.84 -4.16 0
v -4.16 -4.16 0
v -4.16 -3.84 0
v -3.84 -3.84 0
v -3.52 -4.16 0
v -3.84 -4.16 0
v -3.84 -3.84 0
v -3.52 -3.84 0
v -3.2 -4.16 0
v -3.52 -4.16 0
v -3.52 -3.84 0
v -3.2 -3.84 0
v -2.88 -4.16 0
v -3.2 -4.16 0
v -3.2 -3.84 0
v -2.88 -3.84 0
v -2.56 -4.16 0
v -2.88 -4.16 0
v -2.88 -3.84 0
v -2.56 -3.84 0
v -2.24 -4.16 0
v -2.56 -4.16 0
v -2.56 -3.84 0
v -2.24 -3.84 0
v -1.92 -4.16 0
v -2.24 -4.16 0
v -2.24 -3.84 0
v -1.92 -3.84 0
v -1.6 -4.16 0
v -1.92 -4.16 0
v -1.92 -3.84 0
v -1.6 -3.84 0
v -1.28 -4.16 0
v -1.6 -4.16 0
v -1.6 -3.84 0
v -1.28 -3.84 0
v -5.12 -4.48 0
v -5.44 -4.48 0
v -5.44 -4.16 0
v -5.12 -4.16 0
v -4.8 -4.48 0
v -5.12 -4.48 0
v -5.12 -4.16 0
v -4.8 -4.16 0
v -4.48 -4.48 0
v -4.8 -4.48 0
v -4.8 -4.16 0
v -4.48 -4.16 0
v -4.16 -4.48 0
v -4.48 -4.48 0
v -4.48 -4.16 0
v -4.16 -4.16 0
v -3.84 -4.48 0
v -4.16 -4.48 0
v -4.16 -4.16 0
v -3.84 -4.16 0
v -3.52 -4.48 0
v -3.84 -4.48 0
v -3.84 -4.16 0
v -3.52 -4.16 0
v -3.2 -4.48 0
v -3.52 -4.48 0
v -3.52 -4.16 0
v -3.2 -4.16 0
v -2.88 -4.48 0
v -3.2 -4.48 0
v -3.2 -4.16 0
v -2.88 -4.16 0
v -2.56 -4.48 0
v -2.88 -4.48 0
v -2.88 -4.16 0
v -2.56 -4.16 0
v -2.24 -4.48 0
v -2.56 -4.48 0
v -2.56 -4.16 0
v -2.24 -4.16 0
v -1.92 -4.48 0
v -2.24 -4.48 0
v -2.24 -4.16 0
v -1.92 -4.16 0
v -1.6 -4.48 0
v -1.92 -4.48 0
v -1.92 -4.16 0
v -1.6 -4.16 0
v -1.28 -4.48 0
v -1.6 -4.48 0
v -1.6 -4.16 0
v -1.28 -4.16 0
v -5.12 -4.8 0
v -5.44 -4.8 0
v -5.44 -4.48 0
v -5.12 -4.48 0
v -4.8 -4.8 0
v -5.12 -4.8 0
v -5.12 -4.48 0
v -4.8 -4.48 0
v -4.48 -4.8 0
v -4.8 -4.8 0
v -4.8 -4.48 0
v -4.48 -4.48 0
v -4.16 -4.8 0
v -4.48 -4.8 0
v -4.48 -4.48 0
v -4.16 -4.48 0
v -3.84 -4.8 0
v -4.16 -4.8 0
v -4.16 -4.48 0
v -3.84 -4.48 0
v -3.52 -4.8 0
v -3.84 -4.8 0
v -3.84 -4.48 0
v -3.52 -4.48 0
v -3.2 -4.8 0
v -3.52 -4.8 0
v -3.52 -4.48 0
v -3.2 -4.48 0
v -2.88 -4.8 0
v -3.2 -4.8 0
v -3.2 -4.48 0
v -2.88 -4.48 0
v -2.56 -4.8 0
v -2.88 -4.8 0
v -2.88 -4.48 0
v -2.56 -4.48 0
v -2.24 -4.8 0
v -2.56 -4.8 0
v -2.56 -4.48 0
v -2.24 -4.48 0
v -1.92 -4.8 0
v -2.24 -4.8 0
v -2.24 -4.48 0
v -1.92 -4.48 0
v -1.6 -4.8 0
v -1.92 -4.8 0
v -1.92 -4.48 0
v -1.6 -4.48 0
v -1.28 -4.8 0
v -1.6 -4.8 0
v -1.6 -4.48 0
v -1.28 -4.48 0
v -5.12 -5.12 0
v -5.44 -5.12 0
v -5.44 -4.8 0
v -5.12 -4.8 0
v -4.8 -5.12 0
v -5.12 -5.12 0
v -5.12 -4.8 0
v -4.8 -4.8 0
v -4.48 -5.12 0
v -4.8 -5.12 0
v -4.8 -4.8 0
v -4.48 -4.8 0
v -4.16 -5.12 0
v -4.48 -5.12 0
v -4.48 -4.8 0
v -4.16 -4.8 0
v -3.84 -5.12 0
v -4.16 -5.12 0
v -4.16 -4.8 0
v -3.84 -4.8 0
v -3.52 -5.12 0
v -3.84 -5.12 0
v -3.84 -4.8 0
v -3.52 -4.8 0
v -3.2 -5.12 0
v -3.52 -5.12 0
v -3.52 -4.8 0
v -3.2 -4.8 0
v -2.88 -5.12 0
v -3.2 -5.12 0
v -3.2 -4.8 0
v -2.88 -4.8 0
v -2.56 -5.12 0
v -2.88 -5.12 0
v -2.88 -4.8 0
v -2.56 -4.8 0
v -2.24 -5.12 0
v -2.56 -5.12 0
v -2.56 -4.8 0
v -2.24 -4.8 0
v -1.92 -5.12 0
v -2.24 -5.12 0
v -2.24 -4.8 0
v -1.92 -4.8 0
v -1.6 -5.12 0
v -1.92 -5.12 0
v -1.92 -4.8 0
v -1.6 -4.8 0
v -1.28 -5.12 0
v -1.6 -5.12 0
v -1.6 -4.8 0
v -1.28 -4.8 0

# Texture cooridinates (Count = 44)
vt 0.2 0.2
vt 0.25 0.2
vt 0.25 0.25
vt 0.2 0.25
vt 0.25 0.9
vt 0.3 0.9
vt 0.3 0.95
vt 0.25 0.95
vt 0.2 0.9
vt 0.2 0.95
vt 0.1 0.9
vt 0.15 0.9
vt 0.15 0.95
vt 0.1 0.95
vt 0.05 0.9
vt 0.05 0.95
vt 0 0.9
vt 0 0.95
vt 0.15 0.15
vt 0.2 0.15
vt 0.15 0.2
vt 0.2 0.85
vt 0.25 0.85
vt 0.15 0.85
vt 0.1 0.85
vt 0.05 0.85
vt 0.1 0.8
vt 0.15 0.8
vt 0.05 0.8
vt 0.15 0.05000001
vt 0.2 0.05000001
vt 0.2 0.1
vt 0.15 0.1
vt 0.2 0.8
vt 0.25 0.8
vt 0.05 0.55
vt 0.1 0.55
vt 0.1 0.6
vt 0.05 0.6
vt 0 0.55
vt 0 0.6
vt 0.05 0.5
vt 0.1 0.5
vt 0 0.5

# Normal
vn 0 0 -1

# Mesh description
g HouseInside_mesh_0002

# Faces
f 1/1/1 2/2/1 3/3/1 4/4/1
f 5/5/1 6/6/1 7/7/1 8/8/1
f 9/9/1 10/5/1 11/8/1 12/10/1
f 13/11/1 14/12/1 15/13/1 16/14/1
f 17/12/1 18/9/1 19/10/1 20/13/1
f 21/12/1 22/9/1 23/10/1 24/13/1
f 25/12/1 26/9/1 27/10/1 28/13/1
f 29/12/1 30/9/1 31/10/1 32/13/1
f 33/12/1 34/9/1 35/10/1 36/13/1
f 37/11/1 38/12/1 39/13/1 40/14/1
f 41/15/1 42/11/1 43/14/1 44/16/1
f 45/17/1 46/15/1 47/16/1 48/18/1
f 49/1/1 50/2/1 51/3/1 52/4/1
f 53/19/1 54/20/1 55/1/1 56/21/1
f 57/22/1 58/23/1 59/5/1 60/9/1
f 61/24/1 62/22/1 63/9/1 64/12/1
f 65/25/1 66/24/1 67/12/1 68/11/1
f 69/25/1 70/24/1 71/12/1 72/11/1
f 73/25/1 74/24/1 75/12/1 76/11/1
f 77/25/1 78/24/1 79/12/1 80/11/1
f 81/26/1 82/25/1 83/11/1 84/15/1
f 85/27/1 86/28/1 87/24/1 88/25/1
f 89/27/1 90/28/1 91/24/1 92/25/1
f 93/27/1 94/28/1 95/24/1 96/25/1
f 97/29/1 98/27/1 99/25/1 100/26/1
f 101/19/1 102/20/1 103/1/1 104/21/1
f 105/30/1 106/31/1 107/32/1 108/33/1
f 109/34/1 110/35/1 111/23/1 112/22/1
f 113/28/1 114/34/1 115/22/1 116/24/1
f 117/27/1 118/28/1 119/24/1 120/25/1
f 121/27/1 122/28/1 123/24/1 124/25/1
f 125/27/1 126/28/1 127/24/1 128/25/1
f 129/27/1 130/28/1 131/24/1 132/25/1
f 133/29/1 134/27/1 135/25/1 136/26/1
f 137/34/1 138/35/1 139/23/1 140/22/1
f 141/28/1 142/34/1 143/22/1 144/24/1
f 145/27/1 146/28/1 147/24/1 148/25/1
f 149/29/1 150/27/1 151/25/1 152/26/1
f 153/30/1 154/31/1 155/32/1 156/33/1
f 157/36/1 158/37/1 159/38/1 160/39/1
f 161/36/1 162/37/1 163/38/1 164/39/1
f 165/36/1 166/37/1 167/38/1 168/39/1
f 169/36/1 170/37/1 171/38/1 172/39/1
f 173/36/1 174/37/1 175/38/1 176/39/1
f 177/36/1 178/37/1 179/38/1 180/39/1
f 181/36/1 182/37/1 183/38/1 184/39/1
f 185/36/1 186/37/1 187/38/1 188/39/1
f 189/36/1 190/37/1 191/38/1 192/39/1
f 193/36/1 194/37/1 195/38/1 196/39/1
f 197/36/1 198/37/1 199/38/1 200/39/1
f 201/36/1 202/37/1 203/38/1 204/39/1
f 205/40/1 206/36/1 207/39/1 208/41/1
f 209/42/1 210/43/1 211/37/1 212/36/1
f 213/42/1 214/43/1 215/37/1 216/36/1
f 217/42/1 218/43/1 219/37/1 220/36/1
f 221/42/1 222/43/1 223/37/1 224/36/1
f 225/42/1 226/43/1 227/37/1 228/36/1
f 229/42/1 230/43/1 231/37/1 232/36/1
f 233/42/1 234/43/1 235/37/1 236/36/1
f 237/42/1 238/43/1 239/37/1 240/36/1
f 241/42/1 242/43/1 243/37/1 244/36/1
f 245/42/1 246/43/1 247/37/1 248/36/1
f 249/42/1 250/43/1 251/37/1 252/36/1
f 253/36/1 254/37/1 255/38/1 256/39/1
f 257/40/1 258/36/1 259/39/1 260/41/1
f 261/42/1 262/43/1 263/37/1 264/36/1
f 265/44/1 266/42/1 267/36/1 268/40/1
f 269/36/1 270/37/1 271/38/1 272/39/1
f 273/40/1 274/36/1 275/39/1 276/41/1
f 277/40/1 278/36/1 279/39/1 280/41/1
f 281/40/1 282/36/1 283/39/1 284/41/1
f 285/40/1 286/36/1 287/39/1 288/41/1
f 289/40/1 290/36/1 291/39/1 292/41/1
f 293/40/1 294/36/1 295/39/1 296/41/1
f 297/42/1 298/43/1 299/37/1 300/36/1
f 301/44/1 302/42/1 303/36/1 304/40/1
f 305/36/1 306/37/1 307/38/1 308/39/1
f 309/40/1 310/36/1 311/39/1 312/41/1
f 313/42/1 314/43/1 315/37/1 316/36/1
f 317/44/1 318/42/1 319/36/1 320/40/1
f 321/36/1 322/37/1 323/38/1 324/39/1
f 325/36/1 326/37/1 327/38/1 328/39/1
f 329/40/1 330/36/1 331/39/1 332/41/1
f 333/36/1 334/37/1 335/38/1 336/39/1
f 337/40/1 338/36/1 339/39/1 340/41/1
f 341/44/1 342/42/1 343/36/1 344/40/1
f 345/44/1 346/42/1 347/36/1 348/40/1
f 349/42/1 350/43/1 351/37/1 352/36/1
f 353/44/1 354/42/1 355/36/1 356/40/1
f 357/36/1 358/37/1 359/38/1 360/39/1
f 361/40/1 362/36/1 363/39/1 364/41/1
f 365/42/1 366/43/1 367/37/1 368/36/1
f 369/44/1 370/42/1 371/36/1 372/40/1
f 373/42/1 374/43/1 375/37/1 376/36/1
f 377/36/1 378/37/1 379/38/1 380/39/1
f 381/36/1 382/37/1 383/38/1 384/39/1
f 385/42/1 386/43/1 387/37/1 388/36/1
f 389/36/1 390/37/1 391/38/1 392/39/1
f 393/40/1 394/36/1 395/39/1 396/41/1
f 397/42/1 398/43/1 399/37/1 400/36/1
f 401/42/1 402/43/1 403/37/1 404/36/1
f 405/44/1 406/42/1 407/36/1 408/40/1
f 409/42/1 410/43/1 411/37/1 412/36/1
f 413/44/1 414/42/1 415/36/1 416/40/1
f 417/42/1 418/43/1 419/37/1 420/36/1
f 421/44/1 422/42/1 423/36/1 424/40/1
f 425/36/1 426/37/1 427/38/1 428/39/1
f 429/42/1 430/43/1 431/37/1 432/36/1
f 433/42/1 434/43/1 435/37/1 436/36/1
f 437/42/1 438/43/1 439/37/1 440/36/1
f 441/42/1 442/43/1 443/37/1 444/36/1
f 445/44/1 446/42/1 447/36/1 448/40/1
f 449/42/1 450/43/1 451/37/1 452/36/1
f 453/44/1 454/42/1 455/36/1 456/40/1
f 457/36/1 458/37/1 459/38/1 460/39/1
f 461/40/1 462/36/1 463/39/1 464/41/1
f 465/44/1 466/42/1 467/36/1 468/40/1
f 469/42/1 470/43/1 471/37/1 472/36/1
f 473/44/1 474/42/1 475/36/1 476/40/1
f 477/42/1 478/43/1 479/37/1 480/36/1
f 481/42/1 482/43/1 483/37/1 484/36/1
f 485/42/1 486/43/1 487/37/1 488/36/1
f 489/42/1 490/43/1 491/37/1 492/36/1
f 493/42/1 494/43/1 495/37/1 496/36/1
f 497/42/1 498/43/1 499/37/1 500/36/1
f 501/42/1 502/43/1 503/37/1 504/36/1
f 505/44/1 506/42/1 507/36/1 508/40/1
f 509/36/1 510/37/1 511/38/1 512/39/1
f 513/36/1 514/37/1 515/38/1 516/39/1
f 517/40/1 518/36/1 519/39/1 520/41/1
f 521/42/1 522/43/1 523/37/1 524/36/1
f 525/44/1 526/42/1 527/36/1 528/40/1
f 529/42/1 530/43/1 531/37/1 532/36/1
f 533/44/1 534/42/1 535/36/1 536/40/1
f 537/40/1 538/36/1 539/39/1 540/41/1
f 541/40/1 542/36/1 543/39/1 544/41/1
f 545/40/1 546/36/1 547/39/1 548/41/1
f 549/40/1 550/36/1 551/39/1 552/41/1
f 553/40/1 554/36/1 555/39/1 556/41/1
f 557/40/1 558/36/1 559/39/1 560/41/1
f 561/40/1 562/36/1 563/39/1 564/41/1
f 565/40/1 566/36/1 567/39/1 568/41/1
f 569/40/1 570/36/1 571/39/1 572/41/1
f 573/42/1 574/43/1 575/37/1 576/36/1
f 577/44/1 578/42/1 579/36/1 580/40/1
f 581/42/1 582/43/1 583/37/1 584/36/1
f 585/44/1 586/42/1 587/36/1 588/40/1
f 589/44/1 590/42/1 591/36/1 592/40/1
f 593/44/1 594/42/1 595/36/1 596/40/1
f 597/44/1 598/42/1 599/36/1 600/40/1
f 601/44/1 602/42/1 603/36/1 604/40/1
f 605/44/1 606/42/1 607/36/1 608/40/1
f 609/44/1 610/42/1 611/36/1 612/40/1
f 613/44/1 614/42/1 615/36/1 616/40/1
f 617/44/1 618/42/1 619/36/1 620/40/1
f 621/44/1 622/42/1 623/36/1 624/40/1
f 625/42/1 626/43/1 627/37/1 628/36/1
f 629/44/1 630/42/1 631/36/1 632/40/1
f 633/40/1 634/36/1 635/39/1 636/41/1
f 637/44/1 638/42/1 639/36/1 640/40/1
f 641/44/1 642/42/1 643/36/1 644/40/1
f 645/40/1 646/36/1 647/39/1 648/41/1
f 649/40/1 650/36/1 651/39/1 652/41/1
f 653/40/1 654/36/1 655/39/1 656/41/1
f 657/40/1 658/36/1 659/39/1 660/41/1
f 661/40/1 662/36/1 663/39/1 664/41/1
f 665/40/1 666/36/1 667/39/1 668/41/1
f 669/40/1 670/36/1 671/39/1 672/41/1
f 673/40/1 674/36/1 675/39/1 676/41/1
f 677/42/1 678/43/1 679/37/1 680/36/1
f 681/44/1 682/42/1 683/36/1 684/40/1
f 685/44/1 686/42/1 687/36/1 688/40/1
f 689/42/1 690/43/1 691/37/1 692/36/1
f 693/44/1 694/42/1 695/36/1 696/40/1
f 697/44/1 698/42/1 699/36/1 700/40/1
f 701/44/1 702/42/1 703/36/1 704/40/1
f 705/44/1 706/42/1 707/36/1 708/40/1
f 709/44/1 710/42/1 711/36/1 712/40/1
f 713/44/1 714/42/1 715/36/1 716/40/1
f 717/44/1 718/42/1 719/36/1 720/40/1
f 721/44/1 722/42/1 723/36/1 724/40/1
f 725/44/1 726/42/1 727/36/1 728/40/1

