# Tiled2Unity generated file. Do not modify by hand.
# Wavefront file for 'HouseInside_mesh_0003.obj'

# Vertices (Count = 96)
v -2.24 -1.92 0
v -2.56 -1.92 0
v -2.56 -1.6 0
v -2.24 -1.6 0
v -1.92 -1.92 0
v -2.24 -1.92 0
v -2.24 -1.6 0
v -1.92 -1.6 0
v -1.6 -1.92 0
v -1.92 -1.92 0
v -1.92 -1.6 0
v -1.6 -1.6 0
v -1.28 -1.92 0
v -1.6 -1.92 0
v -1.6 -1.6 0
v -1.28 -1.6 0
v -2.88 -2.24 0
v -3.2 -2.24 0
v -3.2 -1.92 0
v -2.88 -1.92 0
v -2.56 -2.24 0
v -2.88 -2.24 0
v -2.88 -1.92 0
v -2.56 -1.92 0
v -2.24 -2.24 0
v -2.56 -2.24 0
v -2.56 -1.92 0
v -2.24 -1.92 0
v -1.92 -2.24 0
v -2.24 -2.24 0
v -2.24 -1.92 0
v -1.92 -1.92 0
v -1.6 -2.24 0
v -1.92 -2.24 0
v -1.92 -1.92 0
v -1.6 -1.92 0
v -1.28 -2.24 0
v -1.6 -2.24 0
v -1.6 -1.92 0
v -1.28 -1.92 0
v -2.88 -2.56 0
v -3.2 -2.56 0
v -3.2 -2.24 0
v -2.88 -2.24 0
v -2.56 -2.56 0
v -2.88 -2.56 0
v -2.88 -2.24 0
v -2.56 -2.24 0
v -2.24 -2.56 0
v -2.56 -2.56 0
v -2.56 -2.24 0
v -2.24 -2.24 0
v -1.92 -2.56 0
v -2.24 -2.56 0
v -2.24 -2.24 0
v -1.92 -2.24 0
v -1.6 -2.56 0
v -1.92 -2.56 0
v -1.92 -2.24 0
v -1.6 -2.24 0
v -1.28 -2.56 0
v -1.6 -2.56 0
v -1.6 -2.24 0
v -1.28 -2.24 0
v -2.24 -2.88 0
v -2.56 -2.88 0
v -2.56 -2.56 0
v -2.24 -2.56 0
v -1.92 -2.88 0
v -2.24 -2.88 0
v -2.24 -2.56 0
v -1.92 -2.56 0
v -1.6 -2.88 0
v -1.92 -2.88 0
v -1.92 -2.56 0
v -1.6 -2.56 0
v -1.28 -2.88 0
v -1.6 -2.88 0
v -1.6 -2.56 0
v -1.28 -2.56 0
v -2.24 -3.2 0
v -2.56 -3.2 0
v -2.56 -2.88 0
v -2.24 -2.88 0
v -1.92 -3.2 0
v -2.24 -3.2 0
v -2.24 -2.88 0
v -1.92 -2.88 0
v -1.6 -3.2 0
v -1.92 -3.2 0
v -1.92 -2.88 0
v -1.6 -2.88 0
v -1.28 -3.2 0
v -1.6 -3.2 0
v -1.6 -2.88 0
v -1.28 -2.88 0

# Texture cooridinates (Count = 39)
vt 0.3 0.75
vt 0.4 0.75
vt 0.4 0.875
vt 0.3 0.875
vt 0.2 0.75
vt 0.2 0.875
vt 0.1 0.75
vt 0.1 0.875
vt 0 0.75
vt 0 0.875
vt 0.9 0.25
vt 1 0.25
vt 1 0.375
vt 0.9 0.375
vt 0.8 0.25
vt 0.8 0.375
vt 0.3 0.625
vt 0.4 0.625
vt 0.2 0.625
vt 0.1 0.625
vt 0 0.625
vt 0.9 0.125
vt 1 0.125
vt 0.8 0.125
vt 0.3 0.5
vt 0.4 0.5
vt 0.2 0.5
vt 0.1 0.5
vt 0 0.5
vt 0.3 0.375
vt 0.4 0.375
vt 0.2 0.375
vt 0.1 0.375
vt 0 0.375
vt 0.3 0.25
vt 0.4 0.25
vt 0.2 0.25
vt 0.1 0.25
vt 0 0.25

# Normal
vn 0 0 -1

# Mesh description
g HouseInside_mesh_0003

# Faces
f 1/1/1 2/2/1 3/3/1 4/4/1
f 5/5/1 6/1/1 7/4/1 8/6/1
f 9/7/1 10/5/1 11/6/1 12/8/1
f 13/9/1 14/7/1 15/8/1 16/10/1
f 17/11/1 18/12/1 19/13/1 20/14/1
f 21/15/1 22/11/1 23/14/1 24/16/1
f 25/17/1 26/18/1 27/2/1 28/1/1
f 29/19/1 30/17/1 31/1/1 32/5/1
f 33/20/1 34/19/1 35/5/1 36/7/1
f 37/21/1 38/20/1 39/7/1 40/9/1
f 41/22/1 42/23/1 43/12/1 44/11/1
f 45/24/1 46/22/1 47/11/1 48/15/1
f 49/25/1 50/26/1 51/18/1 52/17/1
f 53/27/1 54/25/1 55/17/1 56/19/1
f 57/28/1 58/27/1 59/19/1 60/20/1
f 61/29/1 62/28/1 63/20/1 64/21/1
f 65/30/1 66/31/1 67/26/1 68/25/1
f 69/32/1 70/30/1 71/25/1 72/27/1
f 73/33/1 74/32/1 75/27/1 76/28/1
f 77/34/1 78/33/1 79/28/1 80/29/1
f 81/35/1 82/36/1 83/31/1 84/30/1
f 85/37/1 86/35/1 87/30/1 88/32/1
f 89/38/1 90/37/1 91/32/1 92/33/1
f 93/39/1 94/38/1 95/33/1 96/34/1

