# Tiled2Unity generated file. Do not modify by hand.
# Wavefront file for 'HouseInside_mesh_0001.obj'

# Vertices (Count = 256)
v -5.44 -0.64 0
v -5.76 -0.64 0
v -5.76 -0.32 0
v -5.44 -0.32 0
v -5.12 -0.64 0
v -5.44 -0.64 0
v -5.44 -0.32 0
v -5.12 -0.32 0
v -4.8 -0.64 0
v -5.12 -0.64 0
v -5.12 -0.32 0
v -4.8 -0.32 0
v -4.48 -0.64 0
v -4.8 -0.64 0
v -4.8 -0.32 0
v -4.48 -0.32 0
v -4.16 -0.64 0
v -4.48 -0.64 0
v -4.48 -0.32 0
v -4.16 -0.32 0
v -3.84 -0.64 0
v -4.16 -0.64 0
v -4.16 -0.32 0
v -3.84 -0.32 0
v -3.52 -0.64 0
v -3.84 -0.64 0
v -3.84 -0.32 0
v -3.52 -0.32 0
v -3.2 -0.64 0
v -3.52 -0.64 0
v -3.52 -0.32 0
v -3.2 -0.32 0
v -2.88 -0.64 0
v -3.2 -0.64 0
v -3.2 -0.32 0
v -2.88 -0.32 0
v -2.56 -0.64 0
v -2.88 -0.64 0
v -2.88 -0.32 0
v -2.56 -0.32 0
v -2.24 -0.64 0
v -2.56 -0.64 0
v -2.56 -0.32 0
v -2.24 -0.32 0
v -1.92 -0.64 0
v -2.24 -0.64 0
v -2.24 -0.32 0
v -1.92 -0.32 0
v -1.6 -0.64 0
v -1.92 -0.64 0
v -1.92 -0.32 0
v -1.6 -0.32 0
v -1.28 -0.64 0
v -1.6 -0.64 0
v -1.6 -0.32 0
v -1.28 -0.32 0
v -0.96 -0.64 0
v -1.28 -0.64 0
v -1.28 -0.32 0
v -0.96 -0.32 0
v -5.44 -0.96 0
v -5.76 -0.96 0
v -5.76 -0.64 0
v -5.44 -0.64 0
v -0.96 -0.96 0
v -1.28 -0.96 0
v -1.28 -0.64 0
v -0.96 -0.64 0
v -5.44 -1.28 0
v -5.76 -1.28 0
v -5.76 -0.96 0
v -5.44 -0.96 0
v -0.96 -1.28 0
v -1.28 -1.28 0
v -1.28 -0.96 0
v -0.96 -0.96 0
v -5.44 -1.6 0
v -5.76 -1.6 0
v -5.76 -1.28 0
v -5.44 -1.28 0
v -0.96 -1.6 0
v -1.28 -1.6 0
v -1.28 -1.28 0
v -0.96 -1.28 0
v -5.44 -1.92 0
v -5.76 -1.92 0
v -5.76 -1.6 0
v -5.44 -1.6 0
v -0.96 -1.92 0
v -1.28 -1.92 0
v -1.28 -1.6 0
v -0.96 -1.6 0
v -5.44 -2.24 0
v -5.76 -2.24 0
v -5.76 -1.92 0
v -5.44 -1.92 0
v -0.96 -2.24 0
v -1.28 -2.24 0
v -1.28 -1.92 0
v -0.96 -1.92 0
v -5.44 -2.56 0
v -5.76 -2.56 0
v -5.76 -2.24 0
v -5.44 -2.24 0
v -0.96 -2.56 0
v -1.28 -2.56 0
v -1.28 -2.24 0
v -0.96 -2.24 0
v -5.44 -2.88 0
v -5.76 -2.88 0
v -5.76 -2.56 0
v -5.44 -2.56 0
v -0.96 -2.88 0
v -1.28 -2.88 0
v -1.28 -2.56 0
v -0.96 -2.56 0
v -5.44 -3.2 0
v -5.76 -3.2 0
v -5.76 -2.88 0
v -5.44 -2.88 0
v -0.96 -3.2 0
v -1.28 -3.2 0
v -1.28 -2.88 0
v -0.96 -2.88 0
v -5.44 -3.52 0
v -5.76 -3.52 0
v -5.76 -3.2 0
v -5.44 -3.2 0
v -0.96 -3.52 0
v -1.28 -3.52 0
v -1.28 -3.2 0
v -0.96 -3.2 0
v -5.44 -3.84 0
v -5.76 -3.84 0
v -5.76 -3.52 0
v -5.44 -3.52 0
v -0.96 -3.84 0
v -1.28 -3.84 0
v -1.28 -3.52 0
v -0.96 -3.52 0
v -5.44 -4.16 0
v -5.76 -4.16 0
v -5.76 -3.84 0
v -5.44 -3.84 0
v -0.96 -4.16 0
v -1.28 -4.16 0
v -1.28 -3.84 0
v -0.96 -3.84 0
v -5.44 -4.48 0
v -5.76 -4.48 0
v -5.76 -4.16 0
v -5.44 -4.16 0
v -0.96 -4.48 0
v -1.28 -4.48 0
v -1.28 -4.16 0
v -0.96 -4.16 0
v -5.44 -4.8 0
v -5.76 -4.8 0
v -5.76 -4.48 0
v -5.44 -4.48 0
v -0.96 -4.8 0
v -1.28 -4.8 0
v -1.28 -4.48 0
v -0.96 -4.48 0
v -5.44 -5.12 0
v -5.76 -5.12 0
v -5.76 -4.8 0
v -5.44 -4.8 0
v -0.96 -5.12 0
v -1.28 -5.12 0
v -1.28 -4.8 0
v -0.96 -4.8 0
v -5.44 -5.44 0
v -5.76 -5.44 0
v -5.76 -5.12 0
v -5.44 -5.12 0
v -5.12 -5.44 0
v -5.44 -5.44 0
v -5.44 -5.12 0
v -5.12 -5.12 0
v -4.8 -5.44 0
v -5.12 -5.44 0
v -5.12 -5.12 0
v -4.8 -5.12 0
v -4.48 -5.44 0
v -4.8 -5.44 0
v -4.8 -5.12 0
v -4.48 -5.12 0
v -4.16 -5.44 0
v -4.48 -5.44 0
v -4.48 -5.12 0
v -4.16 -5.12 0
v -3.84 -5.44 0
v -4.16 -5.44 0
v -4.16 -5.12 0
v -3.84 -5.12 0
v -3.52 -5.44 0
v -3.84 -5.44 0
v -3.84 -5.12 0
v -3.52 -5.12 0
v -3.2 -5.44 0
v -3.52 -5.44 0
v -3.52 -5.12 0
v -3.2 -5.12 0
v -2.88 -5.44 0
v -3.2 -5.44 0
v -3.2 -5.12 0
v -2.88 -5.12 0
v -2.56 -5.44 0
v -2.88 -5.44 0
v -2.88 -5.12 0
v -2.56 -5.12 0
v -2.24 -5.44 0
v -2.56 -5.44 0
v -2.56 -5.12 0
v -2.24 -5.12 0
v -1.92 -5.44 0
v -2.24 -5.44 0
v -2.24 -5.12 0
v -1.92 -5.12 0
v -1.6 -5.44 0
v -1.92 -5.44 0
v -1.92 -5.12 0
v -1.6 -5.12 0
v -1.28 -5.44 0
v -1.6 -5.44 0
v -1.6 -5.12 0
v -1.28 -5.12 0
v -0.96 -5.44 0
v -1.28 -5.44 0
v -1.28 -5.12 0
v -0.96 -5.12 0
v -3.52 -5.76 0
v -3.84 -5.76 0
v -3.84 -5.44 0
v -3.52 -5.44 0
v -3.2 -5.76 0
v -3.52 -5.76 0
v -3.52 -5.44 0
v -3.2 -5.44 0
v -2.88 -5.76 0
v -3.2 -5.76 0
v -3.2 -5.44 0
v -2.88 -5.44 0
v -3.52 -6.08 0
v -3.84 -6.08 0
v -3.84 -5.76 0
v -3.52 -5.76 0
v -3.2 -6.08 0
v -3.52 -6.08 0
v -3.52 -5.76 0
v -3.2 -5.76 0
v -2.88 -6.08 0
v -3.2 -6.08 0
v -3.2 -5.76 0
v -2.88 -5.76 0

# Texture cooridinates (Count = 46)
vt 0.6111111 0.5
vt 0.6666667 0.5
vt 0.6666667 0.5714285
vt 0.6111111 0.5714285
vt 0.5555556 0.5
vt 0.5555556 0.5714285
vt 0.5 0.5
vt 0.5 0.5714285
vt 0.4444444 0.5
vt 0.4444444 0.5714285
vt 0.3888889 0.5
vt 0.3888889 0.5714285
vt 0.3333333 0.5
vt 0.3333333 0.5714285
vt 0.6111111 0.0714286
vt 0.6666667 0.0714286
vt 0.6666667 0.1428571
vt 0.6111111 0.1428571
vt 0.3333333 0.2857143
vt 0.3888889 0.2857143
vt 0.3888889 0.3571429
vt 0.3333333 0.3571429
vt 0.6111111 0
vt 0.6666667 0
vt 0.3333333 0.2142857
vt 0.3888889 0.2142857
vt 0.6111111 0.4285714
vt 0.6666667 0.4285714
vt 0.5555556 0.4285714
vt 0.5 0.1428571
vt 0.5555556 0.1428571
vt 0.5555556 0.2142857
vt 0.5 0.2142857
vt 0.4444444 0.1428571
vt 0.4444444 0.2142857
vt 0.5 0.8571429
vt 0.5555556 0.8571429
vt 0.5555556 0.9285714
vt 0.5 0.9285714
vt 0.4444444 0.8571429
vt 0.4444444 0.9285714
vt 0.3888889 0.1428571
vt 0.3333333 0.1428571
vt 0.5 0.7857143
vt 0.5555556 0.7857143
vt 0.4444444 0.7857143

# Normal
vn 0 0 -1

# Mesh description
g HouseInside_mesh_0001

# Faces
f 1/1/1 2/2/1 3/3/1 4/4/1
f 5/5/1 6/1/1 7/4/1 8/6/1
f 9/7/1 10/5/1 11/6/1 12/8/1
f 13/7/1 14/5/1 15/6/1 16/8/1
f 17/7/1 18/5/1 19/6/1 20/8/1
f 21/7/1 22/5/1 23/6/1 24/8/1
f 25/7/1 26/5/1 27/6/1 28/8/1
f 29/7/1 30/5/1 31/6/1 32/8/1
f 33/7/1 34/5/1 35/6/1 36/8/1
f 37/7/1 38/5/1 39/6/1 40/8/1
f 41/7/1 42/5/1 43/6/1 44/8/1
f 45/7/1 46/5/1 47/6/1 48/8/1
f 49/9/1 50/7/1 51/8/1 52/10/1
f 53/11/1 54/9/1 55/10/1 56/12/1
f 57/13/1 58/11/1 59/12/1 60/14/1
f 61/15/1 62/16/1 63/17/1 64/18/1
f 65/19/1 66/20/1 67/21/1 68/22/1
f 69/23/1 70/24/1 71/16/1 72/15/1
f 73/25/1 74/26/1 75/20/1 76/19/1
f 77/23/1 78/24/1 79/16/1 80/15/1
f 81/25/1 82/26/1 83/20/1 84/19/1
f 85/23/1 86/24/1 87/16/1 88/15/1
f 89/25/1 90/26/1 91/20/1 92/19/1
f 93/23/1 94/24/1 95/16/1 96/15/1
f 97/25/1 98/26/1 99/20/1 100/19/1
f 101/23/1 102/24/1 103/16/1 104/15/1
f 105/25/1 106/26/1 107/20/1 108/19/1
f 109/23/1 110/24/1 111/16/1 112/15/1
f 113/25/1 114/26/1 115/20/1 116/19/1
f 117/23/1 118/24/1 119/16/1 120/15/1
f 121/25/1 122/26/1 123/20/1 124/19/1
f 125/23/1 126/24/1 127/16/1 128/15/1
f 129/25/1 130/26/1 131/20/1 132/19/1
f 133/23/1 134/24/1 135/16/1 136/15/1
f 137/25/1 138/26/1 139/20/1 140/19/1
f 141/23/1 142/24/1 143/16/1 144/15/1
f 145/25/1 146/26/1 147/20/1 148/19/1
f 149/23/1 150/24/1 151/16/1 152/15/1
f 153/25/1 154/26/1 155/20/1 156/19/1
f 157/15/1 158/16/1 159/17/1 160/18/1
f 161/25/1 162/26/1 163/20/1 164/19/1
f 165/23/1 166/24/1 167/16/1 168/15/1
f 169/25/1 170/26/1 171/20/1 172/19/1
f 173/27/1 174/28/1 175/2/1 176/1/1
f 177/29/1 178/27/1 179/1/1 180/5/1
f 181/30/1 182/31/1 183/32/1 184/33/1
f 185/34/1 186/30/1 187/33/1 188/35/1
f 189/34/1 190/30/1 191/33/1 192/35/1
f 193/34/1 194/30/1 195/33/1 196/35/1
f 197/36/1 198/37/1 199/38/1 200/39/1
f 201/36/1 202/37/1 203/38/1 204/39/1
f 205/40/1 206/36/1 207/39/1 208/41/1
f 209/30/1 210/31/1 211/32/1 212/33/1
f 213/34/1 214/30/1 215/33/1 216/35/1
f 217/30/1 218/31/1 219/32/1 220/33/1
f 221/34/1 222/30/1 223/33/1 224/35/1
f 225/42/1 226/34/1 227/35/1 228/26/1
f 229/43/1 230/42/1 231/26/1 232/25/1
f 233/36/1 234/37/1 235/38/1 236/39/1
f 237/36/1 238/37/1 239/38/1 240/39/1
f 241/40/1 242/36/1 243/39/1 244/41/1
f 245/44/1 246/45/1 247/37/1 248/36/1
f 249/44/1 250/45/1 251/37/1 252/36/1
f 253/46/1 254/44/1 255/36/1 256/40/1

