# Tiled2Unity generated file. Do not modify by hand.
# Wavefront file for 'First_mesh_0004.obj'

# Vertices (Count = 300)
v -4.8 -8.32 0
v -5.12 -8.32 0
v -5.12 -8 0
v -4.8 -8 0
v -4.48 -8.32 0
v -4.8 -8.32 0
v -4.8 -8 0
v -4.48 -8 0
v -5.12 -8.639999 0
v -5.44 -8.639999 0
v -5.44 -8.32 0
v -5.12 -8.32 0
v -4.8 -8.639999 0
v -5.12 -8.639999 0
v -5.12 -8.32 0
v -4.8 -8.32 0
v -4.48 -8.639999 0
v -4.8 -8.639999 0
v -4.8 -8.32 0
v -4.48 -8.32 0
v -4.16 -8.639999 0
v -4.48 -8.639999 0
v -4.48 -8.32 0
v -4.16 -8.32 0
v -5.12 -8.96 0
v -5.44 -8.96 0
v -5.44 -8.639999 0
v -5.12 -8.639999 0
v -4.8 -8.96 0
v -5.12 -8.96 0
v -5.12 -8.639999 0
v -4.8 -8.639999 0
v -4.48 -8.96 0
v -4.8 -8.96 0
v -4.8 -8.639999 0
v -4.48 -8.639999 0
v -4.16 -8.96 0
v -4.48 -8.96 0
v -4.48 -8.639999 0
v -4.16 -8.639999 0
v -6.08 -9.28 0
v -6.4 -9.28 0
v -6.4 -8.96 0
v -6.08 -8.96 0
v -5.76 -9.28 0
v -6.08 -9.28 0
v -6.08 -8.96 0
v -5.76 -8.96 0
v -5.44 -9.28 0
v -5.76 -9.28 0
v -5.76 -8.96 0
v -5.44 -8.96 0
v -5.12 -9.28 0
v -5.44 -9.28 0
v -5.44 -8.96 0
v -5.12 -8.96 0
v -4.8 -9.28 0
v -5.12 -9.28 0
v -5.12 -8.96 0
v -4.8 -8.96 0
v -4.48 -9.28 0
v -4.8 -9.28 0
v -4.8 -8.96 0
v -4.48 -8.96 0
v -4.16 -9.28 0
v -4.48 -9.28 0
v -4.48 -8.96 0
v -4.16 -8.96 0
v -3.84 -9.28 0
v -4.16 -9.28 0
v -4.16 -8.96 0
v -3.84 -8.96 0
v -6.08 -9.599999 0
v -6.4 -9.599999 0
v -6.4 -9.28 0
v -6.08 -9.28 0
v -5.44 -9.599999 0
v -5.76 -9.599999 0
v -5.76 -9.28 0
v -5.44 -9.28 0
v -5.12 -9.599999 0
v -5.44 -9.599999 0
v -5.44 -9.28 0
v -5.12 -9.28 0
v -4.8 -9.599999 0
v -5.12 -9.599999 0
v -5.12 -9.28 0
v -4.8 -9.28 0
v -4.48 -9.599999 0
v -4.8 -9.599999 0
v -4.8 -9.28 0
v -4.48 -9.28 0
v -4.16 -9.599999 0
v -4.48 -9.599999 0
v -4.48 -9.28 0
v -4.16 -9.28 0
v -3.84 -9.599999 0
v -4.16 -9.599999 0
v -4.16 -9.28 0
v -3.84 -9.28 0
v -3.52 -9.599999 0
v -3.84 -9.599999 0
v -3.84 -9.28 0
v -3.52 -9.28 0
v -6.08 -9.92 0
v -6.4 -9.92 0
v -6.4 -9.599999 0
v -6.08 -9.599999 0
v -5.76 -9.92 0
v -6.08 -9.92 0
v -6.08 -9.599999 0
v -5.76 -9.599999 0
v -5.44 -9.92 0
v -5.76 -9.92 0
v -5.76 -9.599999 0
v -5.44 -9.599999 0
v -5.12 -9.92 0
v -5.44 -9.92 0
v -5.44 -9.599999 0
v -5.12 -9.599999 0
v -4.8 -9.92 0
v -5.12 -9.92 0
v -5.12 -9.599999 0
v -4.8 -9.599999 0
v -4.48 -9.92 0
v -4.8 -9.92 0
v -4.8 -9.599999 0
v -4.48 -9.599999 0
v -4.16 -9.92 0
v -4.48 -9.92 0
v -4.48 -9.599999 0
v -4.16 -9.599999 0
v -3.84 -9.92 0
v -4.16 -9.92 0
v -4.16 -9.599999 0
v -3.84 -9.599999 0
v -3.52 -9.92 0
v -3.84 -9.92 0
v -3.84 -9.599999 0
v -3.52 -9.599999 0
v -5.44 -10.24 0
v -5.76 -10.24 0
v -5.76 -9.92 0
v -5.44 -9.92 0
v -5.12 -10.24 0
v -5.44 -10.24 0
v -5.44 -9.92 0
v -5.12 -9.92 0
v -4.8 -10.24 0
v -5.12 -10.24 0
v -5.12 -9.92 0
v -4.8 -9.92 0
v -4.48 -10.24 0
v -4.8 -10.24 0
v -4.8 -9.92 0
v -4.48 -9.92 0
v -4.16 -10.24 0
v -4.48 -10.24 0
v -4.48 -9.92 0
v -4.16 -9.92 0
v -3.84 -10.24 0
v -4.16 -10.24 0
v -4.16 -9.92 0
v -3.84 -9.92 0
v -3.52 -10.24 0
v -3.84 -10.24 0
v -3.84 -9.92 0
v -3.52 -9.92 0
v -5.44 -10.56 0
v -5.76 -10.56 0
v -5.76 -10.24 0
v -5.44 -10.24 0
v -5.12 -10.56 0
v -5.44 -10.56 0
v -5.44 -10.24 0
v -5.12 -10.24 0
v -4.8 -10.56 0
v -5.12 -10.56 0
v -5.12 -10.24 0
v -4.8 -10.24 0
v -4.48 -10.56 0
v -4.8 -10.56 0
v -4.8 -10.24 0
v -4.48 -10.24 0
v -4.16 -10.56 0
v -4.48 -10.56 0
v -4.48 -10.24 0
v -4.16 -10.24 0
v -3.84 -10.56 0
v -4.16 -10.56 0
v -4.16 -10.24 0
v -3.84 -10.24 0
v -3.52 -10.56 0
v -3.84 -10.56 0
v -3.84 -10.24 0
v -3.52 -10.24 0
v -5.76 -10.88 0
v -6.08 -10.88 0
v -6.08 -10.56 0
v -5.76 -10.56 0
v -5.44 -10.88 0
v -5.76 -10.88 0
v -5.76 -10.56 0
v -5.44 -10.56 0
v -5.12 -10.88 0
v -5.44 -10.88 0
v -5.44 -10.56 0
v -5.12 -10.56 0
v -4.8 -10.88 0
v -5.12 -10.88 0
v -5.12 -10.56 0
v -4.8 -10.56 0
v -4.48 -10.88 0
v -4.8 -10.88 0
v -4.8 -10.56 0
v -4.48 -10.56 0
v -4.16 -10.88 0
v -4.48 -10.88 0
v -4.48 -10.56 0
v -4.16 -10.56 0
v -3.84 -10.88 0
v -4.16 -10.88 0
v -4.16 -10.56 0
v -3.84 -10.56 0
v -6.08 -11.2 0
v -6.4 -11.2 0
v -6.4 -10.88 0
v -6.08 -10.88 0
v -5.76 -11.2 0
v -6.08 -11.2 0
v -6.08 -10.88 0
v -5.76 -10.88 0
v -5.44 -11.2 0
v -5.76 -11.2 0
v -5.76 -10.88 0
v -5.44 -10.88 0
v -5.12 -11.2 0
v -5.44 -11.2 0
v -5.44 -10.88 0
v -5.12 -10.88 0
v -4.8 -11.2 0
v -5.12 -11.2 0
v -5.12 -10.88 0
v -4.8 -10.88 0
v -4.48 -11.2 0
v -4.8 -11.2 0
v -4.8 -10.88 0
v -4.48 -10.88 0
v -4.16 -11.2 0
v -4.48 -11.2 0
v -4.48 -10.88 0
v -4.16 -10.88 0
v -3.84 -11.2 0
v -4.16 -11.2 0
v -4.16 -10.88 0
v -3.84 -10.88 0
v -3.52 -11.2 0
v -3.84 -11.2 0
v -3.84 -10.88 0
v -3.52 -10.88 0
v -5.44 -11.52 0
v -5.76 -11.52 0
v -5.76 -11.2 0
v -5.44 -11.2 0
v -5.12 -11.52 0
v -5.44 -11.52 0
v -5.44 -11.2 0
v -5.12 -11.2 0
v -4.8 -11.52 0
v -5.12 -11.52 0
v -5.12 -11.2 0
v -4.8 -11.2 0
v -4.48 -11.52 0
v -4.8 -11.52 0
v -4.8 -11.2 0
v -4.48 -11.2 0
v -4.16 -11.52 0
v -4.48 -11.52 0
v -4.48 -11.2 0
v -4.16 -11.2 0
v -3.84 -11.52 0
v -4.16 -11.52 0
v -4.16 -11.2 0
v -3.84 -11.2 0
v -11.2 -13.76 0
v -11.52 -13.76 0
v -11.52 -13.44 0
v -11.2 -13.44 0
v -10.88 -13.76 0
v -11.2 -13.76 0
v -11.2 -13.44 0
v -10.88 -13.44 0
v -11.2 -14.08 0
v -11.52 -14.08 0
v -11.52 -13.76 0
v -11.2 -13.76 0
v -10.88 -14.08 0
v -11.2 -14.08 0
v -11.2 -13.76 0
v -10.88 -13.76 0

# Texture cooridinates (Count = 9)
vt 0.3333333 0.08333331
vt 0.5 0.08333331
vt 0.5 0.1666667
vt 0.3333333 0.1666667
vt 0.5 0
vt 0.6666667 0
vt 0.6666667 0.08333331
vt 0.3333333 0
vt 0.6666667 0.1666667

# Normal
vn 0 0 -1

# Mesh description
g First_mesh_0004

# Faces
f 1/1/1 2/2/1 3/3/1 4/4/1
f 5/5/1 6/6/1 7/7/1 8/2/1
f 9/1/1 10/2/1 11/3/1 12/4/1
f 13/5/1 14/6/1 15/7/1 16/2/1
f 17/8/1 18/5/1 19/2/1 20/1/1
f 21/8/1 22/5/1 23/2/1 24/1/1
f 25/2/1 26/7/1 27/9/1 28/3/1
f 29/5/1 30/6/1 31/7/1 32/2/1
f 33/1/1 34/2/1 35/3/1 36/4/1
f 37/2/1 38/7/1 39/9/1 40/3/1
f 41/2/1 42/7/1 43/9/1 44/3/1
f 45/5/1 46/6/1 47/7/1 48/2/1
f 49/5/1 50/6/1 51/7/1 52/2/1
f 53/2/1 54/7/1 55/9/1 56/3/1
f 57/2/1 58/7/1 59/9/1 60/3/1
f 61/8/1 62/5/1 63/2/1 64/1/1
f 65/5/1 66/6/1 67/7/1 68/2/1
f 69/1/1 70/2/1 71/3/1 72/4/1
f 73/5/1 74/6/1 75/7/1 76/2/1
f 77/5/1 78/6/1 79/7/1 80/2/1
f 81/2/1 82/7/1 83/9/1 84/3/1
f 85/5/1 86/6/1 87/7/1 88/2/1
f 89/8/1 90/5/1 91/2/1 92/1/1
f 93/2/1 94/7/1 95/9/1 96/3/1
f 97/1/1 98/2/1 99/3/1 100/4/1
f 101/1/1 102/2/1 103/3/1 104/4/1
f 105/1/1 106/2/1 107/3/1 108/4/1
f 109/8/1 110/5/1 111/2/1 112/1/1
f 113/5/1 114/6/1 115/7/1 116/2/1
f 117/5/1 118/6/1 119/7/1 120/2/1
f 121/1/1 122/2/1 123/3/1 124/4/1
f 125/8/1 126/5/1 127/2/1 128/1/1
f 129/1/1 130/2/1 131/3/1 132/4/1
f 133/2/1 134/7/1 135/9/1 136/3/1
f 137/2/1 138/7/1 139/9/1 140/3/1
f 141/2/1 142/7/1 143/9/1 144/3/1
f 145/2/1 146/7/1 147/9/1 148/3/1
f 149/1/1 150/2/1 151/3/1 152/4/1
f 153/1/1 154/2/1 155/3/1 156/4/1
f 157/2/1 158/7/1 159/9/1 160/3/1
f 161/8/1 162/5/1 163/2/1 164/1/1
f 165/1/1 166/2/1 167/3/1 168/4/1
f 169/1/1 170/2/1 171/3/1 172/4/1
f 173/5/1 174/6/1 175/7/1 176/2/1
f 177/8/1 178/5/1 179/2/1 180/1/1
f 181/8/1 182/5/1 183/2/1 184/1/1
f 185/5/1 186/6/1 187/7/1 188/2/1
f 189/1/1 190/2/1 191/3/1 192/4/1
f 193/5/1 194/6/1 195/7/1 196/2/1
f 197/2/1 198/7/1 199/9/1 200/3/1
f 201/2/1 202/7/1 203/9/1 204/3/1
f 205/5/1 206/6/1 207/7/1 208/2/1
f 209/2/1 210/7/1 211/9/1 212/3/1
f 213/8/1 214/5/1 215/2/1 216/1/1
f 217/1/1 218/2/1 219/3/1 220/4/1
f 221/8/1 222/5/1 223/2/1 224/1/1
f 225/1/1 226/2/1 227/3/1 228/4/1
f 229/5/1 230/6/1 231/7/1 232/2/1
f 233/8/1 234/5/1 235/2/1 236/1/1
f 237/2/1 238/7/1 239/9/1 240/3/1
f 241/1/1 242/2/1 243/3/1 244/4/1
f 245/8/1 246/5/1 247/2/1 248/1/1
f 249/2/1 250/7/1 251/9/1 252/3/1
f 253/2/1 254/7/1 255/9/1 256/3/1
f 257/2/1 258/7/1 259/9/1 260/3/1
f 261/8/1 262/5/1 263/2/1 264/1/1
f 265/1/1 266/2/1 267/3/1 268/4/1
f 269/2/1 270/7/1 271/9/1 272/3/1
f 273/5/1 274/6/1 275/7/1 276/2/1
f 277/5/1 278/6/1 279/7/1 280/2/1
f 281/8/1 282/5/1 283/2/1 284/1/1
f 285/2/1 286/7/1 287/9/1 288/3/1
f 289/1/1 290/2/1 291/3/1 292/4/1
f 293/5/1 294/6/1 295/7/1 296/2/1
f 297/8/1 298/5/1 299/2/1 300/1/1

