# Tiled2Unity generated file. Do not modify by hand.
# Wavefront file for 'First_mesh_0009.obj'

# Vertices (Count = 256)
v -6.4 -7.04 0
v -6.72 -7.04 0
v -6.72 -6.72 0
v -6.4 -6.72 0
v -6.08 -7.04 0
v -6.4 -7.04 0
v -6.4 -6.72 0
v -6.08 -6.72 0
v -5.76 -7.04 0
v -6.08 -7.04 0
v -6.08 -6.72 0
v -5.76 -6.72 0
v -5.44 -7.04 0
v -5.76 -7.04 0
v -5.76 -6.72 0
v -5.44 -6.72 0
v -5.12 -7.04 0
v -5.44 -7.04 0
v -5.44 -6.72 0
v -5.12 -6.72 0
v -4.8 -7.04 0
v -5.12 -7.04 0
v -5.12 -6.72 0
v -4.8 -6.72 0
v -4.48 -7.04 0
v -4.8 -7.04 0
v -4.8 -6.72 0
v -4.48 -6.72 0
v -4.16 -7.04 0
v -4.48 -7.04 0
v -4.48 -6.72 0
v -4.16 -6.72 0
v -6.4 -7.36 0
v -6.72 -7.36 0
v -6.72 -7.04 0
v -6.4 -7.04 0
v -6.08 -7.36 0
v -6.4 -7.36 0
v -6.4 -7.04 0
v -6.08 -7.04 0
v -5.76 -7.36 0
v -6.08 -7.36 0
v -6.08 -7.04 0
v -5.76 -7.04 0
v -5.44 -7.36 0
v -5.76 -7.36 0
v -5.76 -7.04 0
v -5.44 -7.04 0
v -5.12 -7.36 0
v -5.44 -7.36 0
v -5.44 -7.04 0
v -5.12 -7.04 0
v -4.8 -7.36 0
v -5.12 -7.36 0
v -5.12 -7.04 0
v -4.8 -7.04 0
v -4.48 -7.36 0
v -4.8 -7.36 0
v -4.8 -7.04 0
v -4.48 -7.04 0
v -4.16 -7.36 0
v -4.48 -7.36 0
v -4.48 -7.04 0
v -4.16 -7.04 0
v -6.4 -7.68 0
v -6.72 -7.68 0
v -6.72 -7.36 0
v -6.4 -7.36 0
v -6.08 -7.68 0
v -6.4 -7.68 0
v -6.4 -7.36 0
v -6.08 -7.36 0
v -5.76 -7.68 0
v -6.08 -7.68 0
v -6.08 -7.36 0
v -5.76 -7.36 0
v -5.44 -7.68 0
v -5.76 -7.68 0
v -5.76 -7.36 0
v -5.44 -7.36 0
v -5.12 -7.68 0
v -5.44 -7.68 0
v -5.44 -7.36 0
v -5.12 -7.36 0
v -4.8 -7.68 0
v -5.12 -7.68 0
v -5.12 -7.36 0
v -4.8 -7.36 0
v -4.48 -7.68 0
v -4.8 -7.68 0
v -4.8 -7.36 0
v -4.48 -7.36 0
v -4.16 -7.68 0
v -4.48 -7.68 0
v -4.48 -7.36 0
v -4.16 -7.36 0
v -6.4 -8 0
v -6.72 -8 0
v -6.72 -7.68 0
v -6.4 -7.68 0
v -6.08 -8 0
v -6.4 -8 0
v -6.4 -7.68 0
v -6.08 -7.68 0
v -5.76 -8 0
v -6.08 -8 0
v -6.08 -7.68 0
v -5.76 -7.68 0
v -5.44 -8 0
v -5.76 -8 0
v -5.76 -7.68 0
v -5.44 -7.68 0
v -5.12 -8 0
v -5.44 -8 0
v -5.44 -7.68 0
v -5.12 -7.68 0
v -4.8 -8 0
v -5.12 -8 0
v -5.12 -7.68 0
v -4.8 -7.68 0
v -4.48 -8 0
v -4.8 -8 0
v -4.8 -7.68 0
v -4.48 -7.68 0
v -4.16 -8 0
v -4.48 -8 0
v -4.48 -7.68 0
v -4.16 -7.68 0
v -6.4 -8.32 0
v -6.72 -8.32 0
v -6.72 -8 0
v -6.4 -8 0
v -6.08 -8.32 0
v -6.4 -8.32 0
v -6.4 -8 0
v -6.08 -8 0
v -5.76 -8.32 0
v -6.08 -8.32 0
v -6.08 -8 0
v -5.76 -8 0
v -5.44 -8.32 0
v -5.76 -8.32 0
v -5.76 -8 0
v -5.44 -8 0
v -5.12 -8.32 0
v -5.44 -8.32 0
v -5.44 -8 0
v -5.12 -8 0
v -4.8 -8.32 0
v -5.12 -8.32 0
v -5.12 -8 0
v -4.8 -8 0
v -4.48 -8.32 0
v -4.8 -8.32 0
v -4.8 -8 0
v -4.48 -8 0
v -4.16 -8.32 0
v -4.48 -8.32 0
v -4.48 -8 0
v -4.16 -8 0
v -6.4 -8.639999 0
v -6.72 -8.639999 0
v -6.72 -8.32 0
v -6.4 -8.32 0
v -6.08 -8.639999 0
v -6.4 -8.639999 0
v -6.4 -8.32 0
v -6.08 -8.32 0
v -5.76 -8.639999 0
v -6.08 -8.639999 0
v -6.08 -8.32 0
v -5.76 -8.32 0
v -5.44 -8.639999 0
v -5.76 -8.639999 0
v -5.76 -8.32 0
v -5.44 -8.32 0
v -5.12 -8.639999 0
v -5.44 -8.639999 0
v -5.44 -8.32 0
v -5.12 -8.32 0
v -4.8 -8.639999 0
v -5.12 -8.639999 0
v -5.12 -8.32 0
v -4.8 -8.32 0
v -4.48 -8.639999 0
v -4.8 -8.639999 0
v -4.8 -8.32 0
v -4.48 -8.32 0
v -4.16 -8.639999 0
v -4.48 -8.639999 0
v -4.48 -8.32 0
v -4.16 -8.32 0
v -6.4 -8.96 0
v -6.72 -8.96 0
v -6.72 -8.639999 0
v -6.4 -8.639999 0
v -6.08 -8.96 0
v -6.4 -8.96 0
v -6.4 -8.639999 0
v -6.08 -8.639999 0
v -5.76 -8.96 0
v -6.08 -8.96 0
v -6.08 -8.639999 0
v -5.76 -8.639999 0
v -5.44 -8.96 0
v -5.76 -8.96 0
v -5.76 -8.639999 0
v -5.44 -8.639999 0
v -5.12 -8.96 0
v -5.44 -8.96 0
v -5.44 -8.639999 0
v -5.12 -8.639999 0
v -4.8 -8.96 0
v -5.12 -8.96 0
v -5.12 -8.639999 0
v -4.8 -8.639999 0
v -4.48 -8.96 0
v -4.8 -8.96 0
v -4.8 -8.639999 0
v -4.48 -8.639999 0
v -4.16 -8.96 0
v -4.48 -8.96 0
v -4.48 -8.639999 0
v -4.16 -8.639999 0
v -6.4 -9.28 0
v -6.72 -9.28 0
v -6.72 -8.96 0
v -6.4 -8.96 0
v -6.08 -9.28 0
v -6.4 -9.28 0
v -6.4 -8.96 0
v -6.08 -8.96 0
v -5.76 -9.28 0
v -6.08 -9.28 0
v -6.08 -8.96 0
v -5.76 -8.96 0
v -5.44 -9.28 0
v -5.76 -9.28 0
v -5.76 -8.96 0
v -5.44 -8.96 0
v -5.12 -9.28 0
v -5.44 -9.28 0
v -5.44 -8.96 0
v -5.12 -8.96 0
v -4.8 -9.28 0
v -5.12 -9.28 0
v -5.12 -8.96 0
v -4.8 -8.96 0
v -4.48 -9.28 0
v -4.8 -9.28 0
v -4.8 -8.96 0
v -4.48 -8.96 0
v -4.16 -9.28 0
v -4.48 -9.28 0
v -4.48 -8.96 0
v -4.16 -8.96 0

# Texture cooridinates (Count = 81)
vt 0.875 0.875
vt 1 0.875
vt 1 1
vt 0.875 1
vt 0.75 0.875
vt 0.75 1
vt 0.625 0.875
vt 0.625 1
vt 0.5 0.875
vt 0.5 1
vt 0.375 0.875
vt 0.375 1
vt 0.25 0.875
vt 0.25 1
vt 0.125 0.875
vt 0.125 1
vt 0 0.875
vt 0 1
vt 0.875 0.75
vt 1 0.75
vt 0.75 0.75
vt 0.625 0.75
vt 0.5 0.75
vt 0.375 0.75
vt 0.25 0.75
vt 0.125 0.75
vt 0 0.75
vt 0.875 0.625
vt 1 0.625
vt 0.75 0.625
vt 0.625 0.625
vt 0.5 0.625
vt 0.375 0.625
vt 0.25 0.625
vt 0.125 0.625
vt 0 0.625
vt 0.875 0.5
vt 1 0.5
vt 0.75 0.5
vt 0.625 0.5
vt 0.5 0.5
vt 0.375 0.5
vt 0.25 0.5
vt 0.125 0.5
vt 0 0.5
vt 0.875 0.375
vt 1 0.375
vt 0.75 0.375
vt 0.625 0.375
vt 0.5 0.375
vt 0.375 0.375
vt 0.25 0.375
vt 0.125 0.375
vt 0 0.375
vt 0.875 0.25
vt 1 0.25
vt 0.75 0.25
vt 0.625 0.25
vt 0.5 0.25
vt 0.375 0.25
vt 0.25 0.25
vt 0.125 0.25
vt 0 0.25
vt 0.875 0.125
vt 1 0.125
vt 0.75 0.125
vt 0.625 0.125
vt 0.5 0.125
vt 0.375 0.125
vt 0.25 0.125
vt 0.125 0.125
vt 0 0.125
vt 0.875 0
vt 1 0
vt 0.75 0
vt 0.625 0
vt 0.5 0
vt 0.375 0
vt 0.25 0
vt 0.125 0
vt 0 0

# Normal
vn 0 0 -1

# Mesh description
g First_mesh_0009

# Faces
f 1/1/1 2/2/1 3/3/1 4/4/1
f 5/5/1 6/1/1 7/4/1 8/6/1
f 9/7/1 10/5/1 11/6/1 12/8/1
f 13/9/1 14/7/1 15/8/1 16/10/1
f 17/11/1 18/9/1 19/10/1 20/12/1
f 21/13/1 22/11/1 23/12/1 24/14/1
f 25/15/1 26/13/1 27/14/1 28/16/1
f 29/17/1 30/15/1 31/16/1 32/18/1
f 33/19/1 34/20/1 35/2/1 36/1/1
f 37/21/1 38/19/1 39/1/1 40/5/1
f 41/22/1 42/21/1 43/5/1 44/7/1
f 45/23/1 46/22/1 47/7/1 48/9/1
f 49/24/1 50/23/1 51/9/1 52/11/1
f 53/25/1 54/24/1 55/11/1 56/13/1
f 57/26/1 58/25/1 59/13/1 60/15/1
f 61/27/1 62/26/1 63/15/1 64/17/1
f 65/28/1 66/29/1 67/20/1 68/19/1
f 69/30/1 70/28/1 71/19/1 72/21/1
f 73/31/1 74/30/1 75/21/1 76/22/1
f 77/32/1 78/31/1 79/22/1 80/23/1
f 81/33/1 82/32/1 83/23/1 84/24/1
f 85/34/1 86/33/1 87/24/1 88/25/1
f 89/35/1 90/34/1 91/25/1 92/26/1
f 93/36/1 94/35/1 95/26/1 96/27/1
f 97/37/1 98/38/1 99/29/1 100/28/1
f 101/39/1 102/37/1 103/28/1 104/30/1
f 105/40/1 106/39/1 107/30/1 108/31/1
f 109/41/1 110/40/1 111/31/1 112/32/1
f 113/42/1 114/41/1 115/32/1 116/33/1
f 117/43/1 118/42/1 119/33/1 120/34/1
f 121/44/1 122/43/1 123/34/1 124/35/1
f 125/45/1 126/44/1 127/35/1 128/36/1
f 129/46/1 130/47/1 131/38/1 132/37/1
f 133/48/1 134/46/1 135/37/1 136/39/1
f 137/49/1 138/48/1 139/39/1 140/40/1
f 141/50/1 142/49/1 143/40/1 144/41/1
f 145/51/1 146/50/1 147/41/1 148/42/1
f 149/52/1 150/51/1 151/42/1 152/43/1
f 153/53/1 154/52/1 155/43/1 156/44/1
f 157/54/1 158/53/1 159/44/1 160/45/1
f 161/55/1 162/56/1 163/47/1 164/46/1
f 165/57/1 166/55/1 167/46/1 168/48/1
f 169/58/1 170/57/1 171/48/1 172/49/1
f 173/59/1 174/58/1 175/49/1 176/50/1
f 177/60/1 178/59/1 179/50/1 180/51/1
f 181/61/1 182/60/1 183/51/1 184/52/1
f 185/62/1 186/61/1 187/52/1 188/53/1
f 189/63/1 190/62/1 191/53/1 192/54/1
f 193/64/1 194/65/1 195/56/1 196/55/1
f 197/66/1 198/64/1 199/55/1 200/57/1
f 201/67/1 202/66/1 203/57/1 204/58/1
f 205/68/1 206/67/1 207/58/1 208/59/1
f 209/69/1 210/68/1 211/59/1 212/60/1
f 213/70/1 214/69/1 215/60/1 216/61/1
f 217/71/1 218/70/1 219/61/1 220/62/1
f 221/72/1 222/71/1 223/62/1 224/63/1
f 225/73/1 226/74/1 227/65/1 228/64/1
f 229/75/1 230/73/1 231/64/1 232/66/1
f 233/76/1 234/75/1 235/66/1 236/67/1
f 237/77/1 238/76/1 239/67/1 240/68/1
f 241/78/1 242/77/1 243/68/1 244/69/1
f 245/79/1 246/78/1 247/69/1 248/70/1
f 249/80/1 250/79/1 251/70/1 252/71/1
f 253/81/1 254/80/1 255/71/1 256/72/1

