# Tiled2Unity generated file. Do not modify by hand.
# Wavefront file for 'First_mesh_0008.obj'

# Vertices (Count = 528)
v -12.8 -1.6 0
v -13.12 -1.6 0
v -13.12 -1.28 0
v -12.8 -1.28 0
v -12.48 -1.6 0
v -12.8 -1.6 0
v -12.8 -1.28 0
v -12.48 -1.28 0
v -12.16 -1.6 0
v -12.48 -1.6 0
v -12.48 -1.28 0
v -12.16 -1.28 0
v -11.84 -1.6 0
v -12.16 -1.6 0
v -12.16 -1.28 0
v -11.84 -1.28 0
v -11.52 -1.6 0
v -11.84 -1.6 0
v -11.84 -1.28 0
v -11.52 -1.28 0
v -11.2 -1.6 0
v -11.52 -1.6 0
v -11.52 -1.28 0
v -11.2 -1.28 0
v -12.8 -1.92 0
v -13.12 -1.92 0
v -13.12 -1.6 0
v -12.8 -1.6 0
v -12.48 -1.92 0
v -12.8 -1.92 0
v -12.8 -1.6 0
v -12.48 -1.6 0
v -12.16 -1.92 0
v -12.48 -1.92 0
v -12.48 -1.6 0
v -12.16 -1.6 0
v -11.84 -1.92 0
v -12.16 -1.92 0
v -12.16 -1.6 0
v -11.84 -1.6 0
v -11.52 -1.92 0
v -11.84 -1.92 0
v -11.84 -1.6 0
v -11.52 -1.6 0
v -11.2 -1.92 0
v -11.52 -1.92 0
v -11.52 -1.6 0
v -11.2 -1.6 0
v -3.52 -1.92 0
v -3.84 -1.92 0
v -3.84 -1.6 0
v -3.52 -1.6 0
v -3.2 -1.92 0
v -3.52 -1.92 0
v -3.52 -1.6 0
v -3.2 -1.6 0
v -2.88 -1.92 0
v -3.2 -1.92 0
v -3.2 -1.6 0
v -2.88 -1.6 0
v -2.56 -1.92 0
v -2.88 -1.92 0
v -2.88 -1.6 0
v -2.56 -1.6 0
v -2.24 -1.92 0
v -2.56 -1.92 0
v -2.56 -1.6 0
v -2.24 -1.6 0
v -1.92 -1.92 0
v -2.24 -1.92 0
v -2.24 -1.6 0
v -1.92 -1.6 0
v -12.8 -2.24 0
v -13.12 -2.24 0
v -13.12 -1.92 0
v -12.8 -1.92 0
v -12.48 -2.24 0
v -12.8 -2.24 0
v -12.8 -1.92 0
v -12.48 -1.92 0
v -12.16 -2.24 0
v -12.48 -2.24 0
v -12.48 -1.92 0
v -12.16 -1.92 0
v -11.84 -2.24 0
v -12.16 -2.24 0
v -12.16 -1.92 0
v -11.84 -1.92 0
v -11.52 -2.24 0
v -11.84 -2.24 0
v -11.84 -1.92 0
v -11.52 -1.92 0
v -11.2 -2.24 0
v -11.52 -2.24 0
v -11.52 -1.92 0
v -11.2 -1.92 0
v -3.52 -2.24 0
v -3.84 -2.24 0
v -3.84 -1.92 0
v -3.52 -1.92 0
v -3.2 -2.24 0
v -3.52 -2.24 0
v -3.52 -1.92 0
v -3.2 -1.92 0
v -2.88 -2.24 0
v -3.2 -2.24 0
v -3.2 -1.92 0
v -2.88 -1.92 0
v -2.56 -2.24 0
v -2.88 -2.24 0
v -2.88 -1.92 0
v -2.56 -1.92 0
v -2.24 -2.24 0
v -2.56 -2.24 0
v -2.56 -1.92 0
v -2.24 -1.92 0
v -1.92 -2.24 0
v -2.24 -2.24 0
v -2.24 -1.92 0
v -1.92 -1.92 0
v -12.8 -2.56 0
v -13.12 -2.56 0
v -13.12 -2.24 0
v -12.8 -2.24 0
v -12.48 -2.56 0
v -12.8 -2.56 0
v -12.8 -2.24 0
v -12.48 -2.24 0
v -12.16 -2.56 0
v -12.48 -2.56 0
v -12.48 -2.24 0
v -12.16 -2.24 0
v -11.84 -2.56 0
v -12.16 -2.56 0
v -12.16 -2.24 0
v -11.84 -2.24 0
v -11.52 -2.56 0
v -11.84 -2.56 0
v -11.84 -2.24 0
v -11.52 -2.24 0
v -11.2 -2.56 0
v -11.52 -2.56 0
v -11.52 -2.24 0
v -11.2 -2.24 0
v -3.52 -2.56 0
v -3.84 -2.56 0
v -3.84 -2.24 0
v -3.52 -2.24 0
v -3.2 -2.56 0
v -3.52 -2.56 0
v -3.52 -2.24 0
v -3.2 -2.24 0
v -2.88 -2.56 0
v -3.2 -2.56 0
v -3.2 -2.24 0
v -2.88 -2.24 0
v -2.56 -2.56 0
v -2.88 -2.56 0
v -2.88 -2.24 0
v -2.56 -2.24 0
v -2.24 -2.56 0
v -2.56 -2.56 0
v -2.56 -2.24 0
v -2.24 -2.24 0
v -1.92 -2.56 0
v -2.24 -2.56 0
v -2.24 -2.24 0
v -1.92 -2.24 0
v -12.8 -2.88 0
v -13.12 -2.88 0
v -13.12 -2.56 0
v -12.8 -2.56 0
v -12.48 -2.88 0
v -12.8 -2.88 0
v -12.8 -2.56 0
v -12.48 -2.56 0
v -12.16 -2.88 0
v -12.48 -2.88 0
v -12.48 -2.56 0
v -12.16 -2.56 0
v -11.84 -2.88 0
v -12.16 -2.88 0
v -12.16 -2.56 0
v -11.84 -2.56 0
v -11.52 -2.88 0
v -11.84 -2.88 0
v -11.84 -2.56 0
v -11.52 -2.56 0
v -11.2 -2.88 0
v -11.52 -2.88 0
v -11.52 -2.56 0
v -11.2 -2.56 0
v -3.52 -2.88 0
v -3.84 -2.88 0
v -3.84 -2.56 0
v -3.52 -2.56 0
v -3.2 -2.88 0
v -3.52 -2.88 0
v -3.52 -2.56 0
v -3.2 -2.56 0
v -2.88 -2.88 0
v -3.2 -2.88 0
v -3.2 -2.56 0
v -2.88 -2.56 0
v -2.56 -2.88 0
v -2.88 -2.88 0
v -2.88 -2.56 0
v -2.56 -2.56 0
v -2.24 -2.88 0
v -2.56 -2.88 0
v -2.56 -2.56 0
v -2.24 -2.56 0
v -1.92 -2.88 0
v -2.24 -2.88 0
v -2.24 -2.56 0
v -1.92 -2.56 0
v -3.52 -3.2 0
v -3.84 -3.2 0
v -3.84 -2.88 0
v -3.52 -2.88 0
v -3.2 -3.2 0
v -3.52 -3.2 0
v -3.52 -2.88 0
v -3.2 -2.88 0
v -2.88 -3.2 0
v -3.2 -3.2 0
v -3.2 -2.88 0
v -2.88 -2.88 0
v -2.56 -3.2 0
v -2.88 -3.2 0
v -2.88 -2.88 0
v -2.56 -2.88 0
v -2.24 -3.2 0
v -2.56 -3.2 0
v -2.56 -2.88 0
v -2.24 -2.88 0
v -1.92 -3.2 0
v -2.24 -3.2 0
v -2.24 -2.88 0
v -1.92 -2.88 0
v -3.52 -3.52 0
v -3.84 -3.52 0
v -3.84 -3.2 0
v -3.52 -3.2 0
v -3.2 -3.52 0
v -3.52 -3.52 0
v -3.52 -3.2 0
v -3.2 -3.2 0
v -2.88 -3.52 0
v -3.2 -3.52 0
v -3.2 -3.2 0
v -2.88 -3.2 0
v -2.56 -3.52 0
v -2.88 -3.52 0
v -2.88 -3.2 0
v -2.56 -3.2 0
v -2.24 -3.52 0
v -2.56 -3.52 0
v -2.56 -3.2 0
v -2.24 -3.2 0
v -1.92 -3.52 0
v -2.24 -3.52 0
v -2.24 -3.2 0
v -1.92 -3.2 0
v -9.92 -7.04 0
v -10.24 -7.04 0
v -10.24 -6.72 0
v -9.92 -6.72 0
v -9.599999 -7.04 0
v -9.92 -7.04 0
v -9.92 -6.72 0
v -9.599999 -6.72 0
v -9.28 -7.04 0
v -9.599999 -7.04 0
v -9.599999 -6.72 0
v -9.28 -6.72 0
v -8.96 -7.04 0
v -9.28 -7.04 0
v -9.28 -6.72 0
v -8.96 -6.72 0
v -8.639999 -7.04 0
v -8.96 -7.04 0
v -8.96 -6.72 0
v -8.639999 -6.72 0
v -8.32 -7.04 0
v -8.639999 -7.04 0
v -8.639999 -6.72 0
v -8.32 -6.72 0
v -9.92 -7.36 0
v -10.24 -7.36 0
v -10.24 -7.04 0
v -9.92 -7.04 0
v -9.599999 -7.36 0
v -9.92 -7.36 0
v -9.92 -7.04 0
v -9.599999 -7.04 0
v -9.28 -7.36 0
v -9.599999 -7.36 0
v -9.599999 -7.04 0
v -9.28 -7.04 0
v -8.96 -7.36 0
v -9.28 -7.36 0
v -9.28 -7.04 0
v -8.96 -7.04 0
v -8.639999 -7.36 0
v -8.96 -7.36 0
v -8.96 -7.04 0
v -8.639999 -7.04 0
v -8.32 -7.36 0
v -8.639999 -7.36 0
v -8.639999 -7.04 0
v -8.32 -7.04 0
v -2.88 -7.36 0
v -3.2 -7.36 0
v -3.2 -7.04 0
v -2.88 -7.04 0
v -2.56 -7.36 0
v -2.88 -7.36 0
v -2.88 -7.04 0
v -2.56 -7.04 0
v -2.24 -7.36 0
v -2.56 -7.36 0
v -2.56 -7.04 0
v -2.24 -7.04 0
v -1.92 -7.36 0
v -2.24 -7.36 0
v -2.24 -7.04 0
v -1.92 -7.04 0
v -1.6 -7.36 0
v -1.92 -7.36 0
v -1.92 -7.04 0
v -1.6 -7.04 0
v -1.28 -7.36 0
v -1.6 -7.36 0
v -1.6 -7.04 0
v -1.28 -7.04 0
v -9.92 -7.68 0
v -10.24 -7.68 0
v -10.24 -7.36 0
v -9.92 -7.36 0
v -9.599999 -7.68 0
v -9.92 -7.68 0
v -9.92 -7.36 0
v -9.599999 -7.36 0
v -9.28 -7.68 0
v -9.599999 -7.68 0
v -9.599999 -7.36 0
v -9.28 -7.36 0
v -8.96 -7.68 0
v -9.28 -7.68 0
v -9.28 -7.36 0
v -8.96 -7.36 0
v -8.639999 -7.68 0
v -8.96 -7.68 0
v -8.96 -7.36 0
v -8.639999 -7.36 0
v -8.32 -7.68 0
v -8.639999 -7.68 0
v -8.639999 -7.36 0
v -8.32 -7.36 0
v -2.88 -7.68 0
v -3.2 -7.68 0
v -3.2 -7.36 0
v -2.88 -7.36 0
v -2.56 -7.68 0
v -2.88 -7.68 0
v -2.88 -7.36 0
v -2.56 -7.36 0
v -2.24 -7.68 0
v -2.56 -7.68 0
v -2.56 -7.36 0
v -2.24 -7.36 0
v -1.92 -7.68 0
v -2.24 -7.68 0
v -2.24 -7.36 0
v -1.92 -7.36 0
v -1.6 -7.68 0
v -1.92 -7.68 0
v -1.92 -7.36 0
v -1.6 -7.36 0
v -1.28 -7.68 0
v -1.6 -7.68 0
v -1.6 -7.36 0
v -1.28 -7.36 0
v -9.92 -8 0
v -10.24 -8 0
v -10.24 -7.68 0
v -9.92 -7.68 0
v -9.599999 -8 0
v -9.92 -8 0
v -9.92 -7.68 0
v -9.599999 -7.68 0
v -9.28 -8 0
v -9.599999 -8 0
v -9.599999 -7.68 0
v -9.28 -7.68 0
v -8.96 -8 0
v -9.28 -8 0
v -9.28 -7.68 0
v -8.96 -7.68 0
v -8.639999 -8 0
v -8.96 -8 0
v -8.96 -7.68 0
v -8.639999 -7.68 0
v -8.32 -8 0
v -8.639999 -8 0
v -8.639999 -7.68 0
v -8.32 -7.68 0
v -2.88 -8 0
v -3.2 -8 0
v -3.2 -7.68 0
v -2.88 -7.68 0
v -2.56 -8 0
v -2.88 -8 0
v -2.88 -7.68 0
v -2.56 -7.68 0
v -2.24 -8 0
v -2.56 -8 0
v -2.56 -7.68 0
v -2.24 -7.68 0
v -1.92 -8 0
v -2.24 -8 0
v -2.24 -7.68 0
v -1.92 -7.68 0
v -1.6 -8 0
v -1.92 -8 0
v -1.92 -7.68 0
v -1.6 -7.68 0
v -1.28 -8 0
v -1.6 -8 0
v -1.6 -7.68 0
v -1.28 -7.68 0
v -9.92 -8.32 0
v -10.24 -8.32 0
v -10.24 -8 0
v -9.92 -8 0
v -9.599999 -8.32 0
v -9.92 -8.32 0
v -9.92 -8 0
v -9.599999 -8 0
v -9.28 -8.32 0
v -9.599999 -8.32 0
v -9.599999 -8 0
v -9.28 -8 0
v -8.96 -8.32 0
v -9.28 -8.32 0
v -9.28 -8 0
v -8.96 -8 0
v -8.639999 -8.32 0
v -8.96 -8.32 0
v -8.96 -8 0
v -8.639999 -8 0
v -8.32 -8.32 0
v -8.639999 -8.32 0
v -8.639999 -8 0
v -8.32 -8 0
v -2.88 -8.32 0
v -3.2 -8.32 0
v -3.2 -8 0
v -2.88 -8 0
v -2.56 -8.32 0
v -2.88 -8.32 0
v -2.88 -8 0
v -2.56 -8 0
v -2.24 -8.32 0
v -2.56 -8.32 0
v -2.56 -8 0
v -2.24 -8 0
v -1.92 -8.32 0
v -2.24 -8.32 0
v -2.24 -8 0
v -1.92 -8 0
v -1.6 -8.32 0
v -1.92 -8.32 0
v -1.92 -8 0
v -1.6 -8 0
v -1.28 -8.32 0
v -1.6 -8.32 0
v -1.6 -8 0
v -1.28 -8 0
v -9.92 -8.639999 0
v -10.24 -8.639999 0
v -10.24 -8.32 0
v -9.92 -8.32 0
v -9.599999 -8.639999 0
v -9.92 -8.639999 0
v -9.92 -8.32 0
v -9.599999 -8.32 0
v -9.28 -8.639999 0
v -9.599999 -8.639999 0
v -9.599999 -8.32 0
v -9.28 -8.32 0
v -8.96 -8.639999 0
v -9.28 -8.639999 0
v -9.28 -8.32 0
v -8.96 -8.32 0
v -8.639999 -8.639999 0
v -8.96 -8.639999 0
v -8.96 -8.32 0
v -8.639999 -8.32 0
v -8.32 -8.639999 0
v -8.639999 -8.639999 0
v -8.639999 -8.32 0
v -8.32 -8.32 0
v -2.88 -8.639999 0
v -3.2 -8.639999 0
v -3.2 -8.32 0
v -2.88 -8.32 0
v -2.56 -8.639999 0
v -2.88 -8.639999 0
v -2.88 -8.32 0
v -2.56 -8.32 0
v -2.24 -8.639999 0
v -2.56 -8.639999 0
v -2.56 -8.32 0
v -2.24 -8.32 0
v -1.92 -8.639999 0
v -2.24 -8.639999 0
v -2.24 -8.32 0
v -1.92 -8.32 0
v -1.6 -8.639999 0
v -1.92 -8.639999 0
v -1.92 -8.32 0
v -1.6 -8.32 0
v -1.28 -8.639999 0
v -1.6 -8.639999 0
v -1.6 -8.32 0
v -1.28 -8.32 0

# Texture cooridinates (Count = 91)
vt 0.4166667 0.9285714
vt 0.5 0.9285714
vt 0.5 1
vt 0.4166667 1
vt 0.3333333 0.9285714
vt 0.3333333 1
vt 0.25 0.9285714
vt 0.25 1
vt 0.1666667 0.9285714
vt 0.1666667 1
vt 0.08333334 0.9285714
vt 0.08333334 1
vt 0 0.9285714
vt 0 1
vt 0.4166667 0.8571429
vt 0.5 0.8571429
vt 0.3333333 0.8571429
vt 0.25 0.8571429
vt 0.1666667 0.8571429
vt 0.08333334 0.8571429
vt 0 0.8571429
vt 0.9166667 0.4285714
vt 1 0.4285714
vt 1 0.5
vt 0.9166667 0.5
vt 0.8333333 0.4285714
vt 0.8333333 0.5
vt 0.75 0.4285714
vt 0.75 0.5
vt 0.6666667 0.4285714
vt 0.6666667 0.5
vt 0.5833333 0.4285714
vt 0.5833333 0.5
vt 0.5 0.4285714
vt 0.5 0.5
vt 0.4166667 0.7857143
vt 0.5 0.7857143
vt 0.3333333 0.7857143
vt 0.25 0.7857143
vt 0.1666667 0.7857143
vt 0.08333334 0.7857143
vt 0 0.7857143
vt 0.9166667 0.3571429
vt 1 0.3571429
vt 0.8333333 0.3571429
vt 0.75 0.3571429
vt 0.6666667 0.3571429
vt 0.5833333 0.3571429
vt 0.5 0.3571429
vt 0.4166667 0.7142857
vt 0.5 0.7142857
vt 0.3333333 0.7142857
vt 0.25 0.7142857
vt 0.1666667 0.7142857
vt 0.08333334 0.7142857
vt 0 0.7142857
vt 0.9166667 0.2857143
vt 1 0.2857143
vt 0.8333333 0.2857143
vt 0.75 0.2857143
vt 0.6666667 0.2857143
vt 0.5833333 0.2857143
vt 0.5 0.2857143
vt 0.4166667 0.6428571
vt 0.5 0.6428571
vt 0.3333333 0.6428571
vt 0.25 0.6428571
vt 0.1666667 0.6428571
vt 0.08333334 0.6428571
vt 0 0.6428571
vt 0.9166667 0.2142857
vt 1 0.2142857
vt 0.8333333 0.2142857
vt 0.75 0.2142857
vt 0.6666667 0.2142857
vt 0.5833333 0.2142857
vt 0.5 0.2142857
vt 0.9166667 0.1428571
vt 1 0.1428571
vt 0.8333333 0.1428571
vt 0.75 0.1428571
vt 0.6666667 0.1428571
vt 0.5833333 0.1428571
vt 0.5 0.1428571
vt 0.9166667 0.0714286
vt 1 0.0714286
vt 0.8333333 0.0714286
vt 0.75 0.0714286
vt 0.6666667 0.0714286
vt 0.5833333 0.0714286
vt 0.5 0.0714286

# Normal
vn 0 0 -1

# Mesh description
g First_mesh_0008

# Faces
f 1/1/1 2/2/1 3/3/1 4/4/1
f 5/5/1 6/1/1 7/4/1 8/6/1
f 9/7/1 10/5/1 11/6/1 12/8/1
f 13/9/1 14/7/1 15/8/1 16/10/1
f 17/11/1 18/9/1 19/10/1 20/12/1
f 21/13/1 22/11/1 23/12/1 24/14/1
f 25/15/1 26/16/1 27/2/1 28/1/1
f 29/17/1 30/15/1 31/1/1 32/5/1
f 33/18/1 34/17/1 35/5/1 36/7/1
f 37/19/1 38/18/1 39/7/1 40/9/1
f 41/20/1 42/19/1 43/9/1 44/11/1
f 45/21/1 46/20/1 47/11/1 48/13/1
f 49/22/1 50/23/1 51/24/1 52/25/1
f 53/26/1 54/22/1 55/25/1 56/27/1
f 57/28/1 58/26/1 59/27/1 60/29/1
f 61/30/1 62/28/1 63/29/1 64/31/1
f 65/32/1 66/30/1 67/31/1 68/33/1
f 69/34/1 70/32/1 71/33/1 72/35/1
f 73/36/1 74/37/1 75/16/1 76/15/1
f 77/38/1 78/36/1 79/15/1 80/17/1
f 81/39/1 82/38/1 83/17/1 84/18/1
f 85/40/1 86/39/1 87/18/1 88/19/1
f 89/41/1 90/40/1 91/19/1 92/20/1
f 93/42/1 94/41/1 95/20/1 96/21/1
f 97/43/1 98/44/1 99/23/1 100/22/1
f 101/45/1 102/43/1 103/22/1 104/26/1
f 105/46/1 106/45/1 107/26/1 108/28/1
f 109/47/1 110/46/1 111/28/1 112/30/1
f 113/48/1 114/47/1 115/30/1 116/32/1
f 117/49/1 118/48/1 119/32/1 120/34/1
f 121/50/1 122/51/1 123/37/1 124/36/1
f 125/52/1 126/50/1 127/36/1 128/38/1
f 129/53/1 130/52/1 131/38/1 132/39/1
f 133/54/1 134/53/1 135/39/1 136/40/1
f 137/55/1 138/54/1 139/40/1 140/41/1
f 141/56/1 142/55/1 143/41/1 144/42/1
f 145/57/1 146/58/1 147/44/1 148/43/1
f 149/59/1 150/57/1 151/43/1 152/45/1
f 153/60/1 154/59/1 155/45/1 156/46/1
f 157/61/1 158/60/1 159/46/1 160/47/1
f 161/62/1 162/61/1 163/47/1 164/48/1
f 165/63/1 166/62/1 167/48/1 168/49/1
f 169/64/1 170/65/1 171/51/1 172/50/1
f 173/66/1 174/64/1 175/50/1 176/52/1
f 177/67/1 178/66/1 179/52/1 180/53/1
f 181/68/1 182/67/1 183/53/1 184/54/1
f 185/69/1 186/68/1 187/54/1 188/55/1
f 189/70/1 190/69/1 191/55/1 192/56/1
f 193/71/1 194/72/1 195/58/1 196/57/1
f 197/73/1 198/71/1 199/57/1 200/59/1
f 201/74/1 202/73/1 203/59/1 204/60/1
f 205/75/1 206/74/1 207/60/1 208/61/1
f 209/76/1 210/75/1 211/61/1 212/62/1
f 213/77/1 214/76/1 215/62/1 216/63/1
f 217/78/1 218/79/1 219/72/1 220/71/1
f 221/80/1 222/78/1 223/71/1 224/73/1
f 225/81/1 226/80/1 227/73/1 228/74/1
f 229/82/1 230/81/1 231/74/1 232/75/1
f 233/83/1 234/82/1 235/75/1 236/76/1
f 237/84/1 238/83/1 239/76/1 240/77/1
f 241/85/1 242/86/1 243/79/1 244/78/1
f 245/87/1 246/85/1 247/78/1 248/80/1
f 249/88/1 250/87/1 251/80/1 252/81/1
f 253/89/1 254/88/1 255/81/1 256/82/1
f 257/90/1 258/89/1 259/82/1 260/83/1
f 261/91/1 262/90/1 263/83/1 264/84/1
f 265/22/1 266/23/1 267/24/1 268/25/1
f 269/26/1 270/22/1 271/25/1 272/27/1
f 273/28/1 274/26/1 275/27/1 276/29/1
f 277/30/1 278/28/1 279/29/1 280/31/1
f 281/32/1 282/30/1 283/31/1 284/33/1
f 285/34/1 286/32/1 287/33/1 288/35/1
f 289/43/1 290/44/1 291/23/1 292/22/1
f 293/45/1 294/43/1 295/22/1 296/26/1
f 297/46/1 298/45/1 299/26/1 300/28/1
f 301/47/1 302/46/1 303/28/1 304/30/1
f 305/48/1 306/47/1 307/30/1 308/32/1
f 309/49/1 310/48/1 311/32/1 312/34/1
f 313/1/1 314/2/1 315/3/1 316/4/1
f 317/5/1 318/1/1 319/4/1 320/6/1
f 321/7/1 322/5/1 323/6/1 324/8/1
f 325/9/1 326/7/1 327/8/1 328/10/1
f 329/11/1 330/9/1 331/10/1 332/12/1
f 333/13/1 334/11/1 335/12/1 336/14/1
f 337/57/1 338/58/1 339/44/1 340/43/1
f 341/59/1 342/57/1 343/43/1 344/45/1
f 345/60/1 346/59/1 347/45/1 348/46/1
f 349/61/1 350/60/1 351/46/1 352/47/1
f 353/62/1 354/61/1 355/47/1 356/48/1
f 357/63/1 358/62/1 359/48/1 360/49/1
f 361/15/1 362/16/1 363/2/1 364/1/1
f 365/17/1 366/15/1 367/1/1 368/5/1
f 369/18/1 370/17/1 371/5/1 372/7/1
f 373/19/1 374/18/1 375/7/1 376/9/1
f 377/20/1 378/19/1 379/9/1 380/11/1
f 381/21/1 382/20/1 383/11/1 384/13/1
f 385/71/1 386/72/1 387/58/1 388/57/1
f 389/73/1 390/71/1 391/57/1 392/59/1
f 393/74/1 394/73/1 395/59/1 396/60/1
f 397/75/1 398/74/1 399/60/1 400/61/1
f 401/76/1 402/75/1 403/61/1 404/62/1
f 405/77/1 406/76/1 407/62/1 408/63/1
f 409/36/1 410/37/1 411/16/1 412/15/1
f 413/38/1 414/36/1 415/15/1 416/17/1
f 417/39/1 418/38/1 419/17/1 420/18/1
f 421/40/1 422/39/1 423/18/1 424/19/1
f 425/41/1 426/40/1 427/19/1 428/20/1
f 429/42/1 430/41/1 431/20/1 432/21/1
f 433/78/1 434/79/1 435/72/1 436/71/1
f 437/80/1 438/78/1 439/71/1 440/73/1
f 441/81/1 442/80/1 443/73/1 444/74/1
f 445/82/1 446/81/1 447/74/1 448/75/1
f 449/83/1 450/82/1 451/75/1 452/76/1
f 453/84/1 454/83/1 455/76/1 456/77/1
f 457/50/1 458/51/1 459/37/1 460/36/1
f 461/52/1 462/50/1 463/36/1 464/38/1
f 465/53/1 466/52/1 467/38/1 468/39/1
f 469/54/1 470/53/1 471/39/1 472/40/1
f 473/55/1 474/54/1 475/40/1 476/41/1
f 477/56/1 478/55/1 479/41/1 480/42/1
f 481/85/1 482/86/1 483/79/1 484/78/1
f 485/87/1 486/85/1 487/78/1 488/80/1
f 489/88/1 490/87/1 491/80/1 492/81/1
f 493/89/1 494/88/1 495/81/1 496/82/1
f 497/90/1 498/89/1 499/82/1 500/83/1
f 501/91/1 502/90/1 503/83/1 504/84/1
f 505/64/1 506/65/1 507/51/1 508/50/1
f 509/66/1 510/64/1 511/50/1 512/52/1
f 513/67/1 514/66/1 515/52/1 516/53/1
f 517/68/1 518/67/1 519/53/1 520/54/1
f 521/69/1 522/68/1 523/54/1 524/55/1
f 525/70/1 526/69/1 527/55/1 528/56/1

